<svg width="1280" height="1478" viewBox="0 0 1280 1478" fill="none" xmlns="http://www.w3.org/2000/svg">
<path fill-rule="evenodd" clip-rule="evenodd" d="M1769.44 1068.67C1700.71 1049.57 1685.04 992.877 1667.17 924.173L1666.8 922.774C1658.7 891.621 1649.26 855.316 1629.19 828.889C1618.35 814.617 1604.16 802.718 1585.46 795.499C1567 788.377 1545.97 786.513 1522.32 789.28C1435.69 799.417 1396.34 849.409 1361.72 893.387L1361.71 893.388C1358.55 897.413 1355.42 901.386 1352.3 905.275C1333.43 928.776 1314.61 949.934 1288.49 966.701C1262.67 983.271 1228.11 996.538 1176.94 1001.1L1176.94 1001.14L1147.71 1003.97C1142.52 986.1 1135.26 968.884 1125.91 952.325C1117.97 937.855 1108.81 923.492 1098.45 909.234L1098.68 908.834C1091.52 899.744 1085.02 890.874 1079.16 882.223C1073.54 873.706 1068.54 863.843 1064.16 852.635L1127.93 845.276C1124.69 869.139 1125.73 889.89 1131.05 907.53C1136.23 925.402 1147.43 939.305 1164.63 949.239C1173.93 954.609 1183.74 957.483 1194.07 957.862C1204.39 958.241 1214.61 955.306 1224.73 949.057C1234.84 942.808 1244.13 932.36 1252.59 917.712C1260.64 903.761 1265.22 889.662 1266.31 875.414C1267.41 861.166 1264.49 847.699 1257.55 835.014C1250.85 822.463 1239.59 811.623 1223.78 802.495C1208.9 793.903 1191.77 789.748 1172.38 790.028C1174.2 763.795 1172 742.372 1165.78 725.76C1159.79 709.283 1148.08 696.01 1130.64 685.942C1109.95 673.995 1090.33 671.194 1071.78 677.538C1053.24 683.883 1037.19 698.797 1023.63 722.28C1015.17 736.928 1009.65 750.79 1007.06 763.866C1004.34 777.175 1003.38 790.108 1004.19 802.666L980.403 805.207L980.294 805.397L913.477 811.875C908.295 794.002 901.029 776.786 891.678 760.227C883.738 745.76 874.586 731.399 864.222 717.144L864.456 716.738C857.304 707.648 850.799 698.778 844.944 690.127C839.32 681.61 834.319 671.747 829.94 660.538L893.711 653.18C890.475 677.042 891.514 697.793 896.831 715.433C902.013 733.306 913.206 747.209 930.412 757.143C939.713 762.512 949.524 765.387 959.845 765.766C970.167 766.145 980.387 763.21 990.505 756.961C1000.62 750.712 1009.91 740.263 1018.37 725.615C1026.42 711.665 1031 697.565 1032.09 683.317C1033.19 669.069 1030.27 655.603 1023.33 642.917C1016.63 630.366 1005.37 619.527 989.559 610.398C974.678 601.807 957.547 597.651 938.164 597.931C939.98 571.698 937.777 550.276 931.557 533.664C925.57 517.187 913.857 503.914 896.419 493.846C875.725 481.899 856.107 479.097 837.563 485.442C819.019 491.786 802.969 506.701 789.41 530.184C780.953 544.832 775.43 558.694 772.841 571.77C770.118 585.078 769.161 598.011 769.971 610.57L746.183 613.111L746.027 613.38L678.944 619.884C673.762 602.012 666.495 584.796 657.145 568.237C648.009 551.591 637.269 535.086 624.924 518.721L625.376 517.939C618.224 508.849 611.719 499.978 605.864 491.327C600.24 482.811 595.239 472.948 590.86 461.739L654.631 454.381C651.395 478.243 652.434 498.994 657.751 516.634C662.933 534.507 674.126 548.41 691.332 558.344C700.633 563.713 710.444 566.587 720.765 566.966C731.087 567.345 741.307 564.41 751.425 558.162C761.543 551.913 770.83 541.464 779.288 526.816C787.342 512.865 791.917 498.766 793.013 484.518C794.109 470.27 791.188 456.803 784.251 444.118C777.547 431.567 766.29 420.727 750.479 411.599C735.598 403.008 718.467 398.852 699.084 399.132C700.899 372.899 698.697 351.477 692.477 334.865C686.49 318.387 674.777 305.115 657.339 295.047C636.645 283.1 617.027 280.298 598.483 286.643C579.939 292.987 563.888 307.901 550.33 331.385C541.873 346.033 536.35 359.895 533.761 372.971C531.038 386.279 530.081 399.212 530.891 411.77L508.41 414.172L508.333 413.788C467.058 422.043 452.93 414.071 446.745 407.986C437.86 399.247 433.023 383.763 426.786 355.626C426.42 353.974 426.049 352.282 425.67 350.553C420.383 326.424 413.543 295.205 396.228 268.858C376.154 238.314 343.921 216.449 292.993 209.569C238.55 202.214 199.493 222.842 170.133 254.956C146.032 281.319 127.46 316.701 110.625 348.776C108.359 353.093 106.125 357.349 103.913 361.516C84.1405 398.76 65.3743 430.656 40.3197 451.821C17.0731 471.459 -13.0678 483.027 -59.8636 475.385L-68.878 530.587C-6.48405 540.776 40.2667 525.086 76.4149 494.549C110.755 465.539 133.887 424.341 153.316 387.743C155.633 383.378 157.896 379.085 160.118 374.869L160.134 374.839L160.153 374.803C177.624 341.658 192.559 313.322 211.415 292.697C230.666 271.64 252.326 260.516 285.505 264.999C322.2 269.956 339.26 284.019 349.485 299.577C360.944 317.012 365.771 338.808 371.731 365.715L371.732 365.715L372.178 367.731L372.386 368.669C377.773 392.982 385.03 425.738 407.521 447.862C424.294 464.36 446.15 472.392 473.128 473.156L472.67 473.951L480.547 473.187C489.815 473.009 499.648 472.041 510.047 470.327L541.633 467.264C546.815 485.137 554.081 502.353 563.432 518.912C572.568 535.557 583.308 552.062 595.652 568.427L595.2 569.21C602.353 578.3 608.857 587.17 614.713 595.821C620.336 604.338 625.337 614.201 629.717 625.409L565.946 632.768C569.182 608.905 568.142 588.154 562.826 570.514C557.644 552.642 546.45 538.739 529.244 528.805C519.944 523.435 510.133 520.561 499.811 520.182C489.49 519.803 479.27 522.738 469.152 528.987C459.034 535.236 449.746 545.684 441.289 560.332C433.235 574.283 428.66 588.382 427.564 602.63C426.468 616.878 429.389 630.345 436.325 643.03C443.029 655.581 454.287 666.421 470.098 675.549C484.978 684.141 502.11 688.296 521.492 688.016C519.677 714.249 521.88 735.672 528.099 752.284C534.087 768.761 545.8 782.034 563.238 792.102C583.931 804.049 603.55 806.85 622.094 800.506C640.637 794.161 656.688 779.247 670.246 755.764C678.703 741.116 684.227 727.254 686.816 714.178C689.539 700.869 690.496 687.936 689.686 675.378L713.474 672.837L713.629 672.568L780.713 666.064C785.895 683.936 793.161 701.152 802.512 717.711C810.452 732.178 819.604 746.539 829.968 760.794L829.734 761.2C836.886 770.29 843.391 779.161 849.246 787.812C854.87 796.328 859.871 806.191 864.25 817.4L800.479 824.758C803.715 800.896 802.676 780.145 797.359 762.505C792.177 744.632 780.983 730.729 763.778 720.796C754.477 715.426 744.666 712.552 734.345 712.173C724.023 711.794 713.803 714.729 703.685 720.978C693.567 727.226 684.279 737.675 675.822 752.323C667.768 766.274 663.193 780.373 662.097 794.621C661.001 808.869 663.922 822.336 670.859 835.021C677.563 847.572 688.82 858.412 704.631 867.54C719.512 876.131 736.643 880.287 756.026 880.007C754.21 906.24 756.413 927.662 762.633 944.274C768.62 960.752 780.333 974.024 797.771 984.092C818.465 996.039 838.083 998.841 856.627 992.496C875.171 986.152 891.221 971.238 904.78 947.754C913.237 933.106 918.76 919.244 921.349 906.168C924.072 892.86 925.029 879.927 924.219 867.369L948.007 864.827L948.117 864.638L1014.93 858.16C1020.12 876.032 1027.38 893.248 1036.73 909.807C1044.67 924.277 1053.83 938.64 1064.19 952.898L1063.96 953.298C1071.12 962.388 1077.62 971.258 1083.48 979.909C1089.1 988.426 1094.1 998.289 1098.48 1009.5L1034.71 1016.86C1037.94 992.993 1036.91 972.242 1031.59 954.602C1026.41 936.73 1015.21 922.827 998.007 912.893C988.707 907.523 978.896 904.649 968.574 904.27C958.253 903.891 948.033 906.826 937.915 913.075C927.796 919.324 918.509 929.772 910.052 944.42C901.997 958.371 897.422 972.47 896.327 986.718C895.231 1000.97 898.151 1014.43 905.088 1027.12C911.792 1039.67 923.05 1050.51 938.86 1059.64C953.741 1068.23 970.873 1072.38 990.255 1072.1C988.44 1098.34 990.642 1119.76 996.862 1136.37C1002.85 1152.85 1014.56 1166.12 1032 1176.19C1052.69 1188.14 1072.31 1190.94 1090.86 1184.59C1109.4 1178.25 1125.45 1163.34 1139.01 1139.85C1147.47 1125.2 1152.99 1111.34 1155.58 1098.27C1158.3 1084.96 1159.26 1072.02 1158.45 1059.47L1182.24 1056.92L1182.32 1056.77C1241.13 1051.48 1284.47 1035.75 1318.7 1013.77C1352.71 991.943 1376.14 964.926 1395.92 940.289C1399.02 936.425 1402.03 932.636 1404.97 928.928C1440.04 884.753 1465.89 852.198 1528.83 844.834C1545.88 842.838 1557.36 844.61 1565.32 847.682C1573.04 850.659 1579.17 855.514 1584.65 862.719C1596.9 878.849 1604.04 903.69 1613.04 938.258C1613.49 939.997 1613.95 941.759 1614.41 943.54C1630.74 1006.62 1653.51 1094.51 1754.46 1122.56L1769.44 1068.67ZM696.508 484.138C694.454 474.272 693.787 463.346 694.506 451.361C698.835 451.38 703.96 452.169 709.881 453.727C716.034 455.42 721.668 457.743 726.783 460.696C734.456 465.126 739.941 470.928 743.24 478.103C746.538 485.277 745.905 492.817 741.341 500.722C738.656 505.372 734.862 508.452 729.96 509.962C725.157 511.839 719.5 510.898 712.989 507.14C704.154 502.038 698.66 494.371 696.508 484.138ZM580.406 386.415C582.17 379.064 585.2 371.668 589.496 364.227C594.463 355.625 600.913 350.358 608.848 348.429C617.014 346.634 624.469 347.683 631.212 351.576C641.442 357.482 648.054 364.555 651.048 372.794C654.274 381.166 655.863 390.764 655.815 401.587L577.863 407.734C578.026 401.007 578.874 393.901 580.406 386.415ZM524.069 603.01C526.123 612.876 526.79 623.802 526.071 635.787C521.742 635.768 516.617 634.979 510.696 633.421C504.543 631.729 498.909 629.406 493.793 626.452C486.121 622.023 480.635 616.22 477.337 609.046C474.039 601.872 474.672 594.332 479.236 586.426C481.921 581.776 485.714 578.696 490.616 577.186C495.42 575.309 501.077 576.25 507.587 580.009C516.423 585.11 521.916 592.777 524.069 603.01ZM640.171 700.733C638.406 708.085 635.376 715.481 631.081 722.921C626.114 731.524 619.663 736.79 611.729 738.719C603.562 740.515 596.107 739.466 589.365 735.573C579.134 729.666 572.522 722.594 569.528 714.355C566.302 705.982 564.713 696.384 564.761 685.561L642.713 679.415C642.55 686.141 641.703 693.247 640.171 700.733ZM933.586 650.16C932.867 662.146 933.534 673.071 935.588 682.938C937.74 693.171 943.234 700.838 952.069 705.939C958.58 709.698 964.237 710.639 969.04 708.762C973.942 707.252 977.736 704.172 980.421 699.521C984.985 691.616 985.618 684.076 982.32 676.902C979.021 669.727 973.536 663.925 965.863 659.495C960.748 656.542 955.114 654.219 948.961 652.527C943.04 650.968 937.915 650.18 933.586 650.16ZM828.576 563.027C824.28 570.467 821.25 577.863 819.486 585.215C817.954 592.701 817.106 599.807 816.943 606.533L894.895 600.386C894.943 589.564 893.354 579.966 890.128 571.593C887.135 563.354 880.522 556.281 870.292 550.375C863.549 546.482 856.094 545.433 847.928 547.228C839.993 549.158 833.543 554.424 828.576 563.027ZM758.602 795.001C760.656 804.867 761.323 815.793 760.604 827.778C756.275 827.759 751.15 826.97 745.229 825.412C739.076 823.719 733.442 821.396 728.327 818.443C720.654 814.013 715.169 808.211 711.87 801.037C708.572 793.862 709.205 786.322 713.769 778.417C716.454 773.767 720.248 770.687 725.15 769.177C729.953 767.3 735.61 768.241 742.121 771.999C750.956 777.101 756.45 784.768 758.602 795.001ZM874.704 892.724C872.94 900.075 869.91 907.471 865.614 914.912C860.647 923.514 854.197 928.781 846.262 930.71C838.096 932.505 830.641 931.456 823.898 927.563C813.668 921.657 807.055 914.584 804.062 906.345C800.836 897.973 799.247 888.375 799.295 877.552L877.247 871.405C877.083 878.132 876.236 885.238 874.704 892.724ZM994.833 1019.88C995.553 1007.89 994.886 996.964 992.831 987.098C990.679 976.865 985.185 969.198 976.35 964.097C969.84 960.338 964.183 959.397 959.379 961.274C954.477 962.784 950.684 965.864 947.999 970.514C943.435 978.42 942.802 985.96 946.1 993.134C949.398 1000.31 954.883 1006.11 962.556 1010.54C967.672 1013.49 973.306 1015.82 979.459 1017.51C985.38 1019.07 990.504 1019.86 994.833 1019.88ZM1099.84 1107.01C1104.14 1099.57 1107.17 1092.17 1108.93 1084.82C1110.47 1077.34 1111.31 1070.23 1111.48 1063.5L1033.52 1069.65C1033.48 1080.47 1035.06 1090.07 1038.29 1098.44C1041.28 1106.68 1047.9 1113.75 1058.13 1119.66C1064.87 1123.55 1072.33 1124.6 1080.49 1122.81C1088.43 1120.88 1094.88 1115.61 1099.84 1107.01ZM1169.81 875.034C1167.75 865.168 1167.09 854.242 1167.81 842.257C1172.14 842.276 1177.26 843.065 1183.18 844.623C1189.33 846.315 1194.97 848.638 1200.08 851.592C1207.76 856.021 1213.24 861.824 1216.54 868.998C1219.84 876.172 1219.21 883.712 1214.64 891.618C1211.96 896.268 1208.16 899.348 1203.26 900.858C1198.46 902.735 1192.8 901.794 1186.29 898.035C1177.45 892.934 1171.96 885.267 1169.81 875.034ZM1053.71 777.311C1055.47 769.959 1058.5 762.563 1062.8 755.123C1067.76 746.52 1074.21 741.254 1082.15 739.325C1090.31 737.529 1097.77 738.578 1104.51 742.471C1114.74 748.378 1121.35 755.45 1124.35 763.689C1127.57 772.062 1129.16 781.66 1129.12 792.482L1051.16 798.629C1051.33 791.903 1052.17 784.797 1053.71 777.311Z" fill="white"/>
<path d="M1667.17 924.173L1668.14 923.921L1668.14 923.921L1667.17 924.173ZM1769.44 1068.67L1770.4 1068.94L1770.67 1067.98L1769.71 1067.71L1769.44 1068.67ZM1666.8 922.774L1665.84 923.026L1665.84 923.026L1666.8 922.774ZM1629.19 828.889L1628.39 829.494L1628.39 829.494L1629.19 828.889ZM1585.46 795.499L1585.82 794.566L1585.46 795.499ZM1522.32 789.28L1522.21 788.286L1522.32 789.28ZM1361.72 893.387L1360.93 892.769L1360.89 892.825L1360.85 892.887L1361.72 893.387ZM1361.71 893.388L1362.5 894.007L1362.55 893.951L1362.58 893.888L1361.71 893.388ZM1352.3 905.275L1353.08 905.901L1353.08 905.901L1352.3 905.275ZM1288.49 966.701L1287.95 965.86L1288.49 966.701ZM1176.94 1001.1L1176.85 1000.1L1175.85 1000.19L1175.94 1001.19L1176.94 1001.1ZM1176.94 1001.14L1177.04 1002.13L1178.02 1002.04L1177.94 1001.05L1176.94 1001.14ZM1147.71 1003.97L1146.75 1004.25L1146.98 1005.05L1147.8 1004.97L1147.71 1003.97ZM1125.91 952.325L1125.03 952.806L1125.04 952.817L1125.91 952.325ZM1098.45 909.234L1097.58 908.734L1097.25 909.297L1097.64 909.822L1098.45 909.234ZM1098.68 908.834L1099.54 909.334L1099.88 908.748L1099.46 908.216L1098.68 908.834ZM1079.16 882.223L1078.33 882.774L1078.34 882.784L1079.16 882.223ZM1064.16 852.635L1064.05 851.641L1062.76 851.79L1063.23 852.999L1064.16 852.635ZM1127.93 845.276L1128.92 845.41L1129.1 844.135L1127.82 844.283L1127.93 845.276ZM1131.05 907.53L1132.01 907.251L1132.01 907.241L1131.05 907.53ZM1194.07 957.862L1194.1 956.862L1194.07 957.862ZM1224.73 949.057L1225.25 949.908L1225.25 949.908L1224.73 949.057ZM1257.55 835.014L1256.67 835.485L1256.67 835.494L1257.55 835.014ZM1172.38 790.028L1171.39 789.959L1171.31 791.043L1172.4 791.028L1172.38 790.028ZM1165.78 725.76L1164.84 726.102L1164.84 726.111L1165.78 725.76ZM1071.78 677.538L1072.11 678.484L1071.78 677.538ZM1007.06 763.866L1008.04 764.067L1008.04 764.06L1007.06 763.866ZM1004.19 802.666L1004.3 803.66L1005.25 803.558L1005.19 802.601L1004.19 802.666ZM980.403 805.207L980.297 804.213L979.791 804.267L979.537 804.707L980.403 805.207ZM980.294 805.397L980.39 806.392L980.902 806.342L981.16 805.897L980.294 805.397ZM913.477 811.875L912.516 812.153L912.748 812.95L913.573 812.87L913.477 811.875ZM891.678 760.227L890.801 760.709L890.807 760.719L891.678 760.227ZM864.222 717.144L863.356 716.644L863.031 717.207L863.413 717.732L864.222 717.144ZM864.456 716.738L865.322 717.238L865.661 716.652L865.242 716.119L864.456 716.738ZM844.944 690.127L844.109 690.678L844.116 690.687L844.944 690.127ZM829.94 660.538L829.825 659.545L828.536 659.694L829.009 660.902L829.94 660.538ZM893.711 653.18L894.702 653.314L894.875 652.039L893.597 652.186L893.711 653.18ZM896.831 715.433L897.791 715.155L897.788 715.145L896.831 715.433ZM959.845 765.766L959.882 764.766L959.845 765.766ZM990.505 756.961L991.03 757.812L991.03 757.812L990.505 756.961ZM1023.33 642.917L1022.45 643.389L1022.45 643.397L1023.33 642.917ZM938.164 597.931L937.167 597.862L937.092 598.947L938.179 598.931L938.164 597.931ZM931.557 533.664L930.617 534.006L930.621 534.015L931.557 533.664ZM837.563 485.442L837.887 486.388L837.563 485.442ZM772.841 571.77L773.821 571.97L773.822 571.964L772.841 571.77ZM769.971 610.57L770.077 611.564L771.03 611.462L770.969 610.505L769.971 610.57ZM746.183 613.111L746.076 612.117L745.571 612.171L745.317 612.611L746.183 613.111ZM746.027 613.38L746.124 614.375L746.636 614.326L746.893 613.88L746.027 613.38ZM678.944 619.884L677.983 620.162L678.214 620.959L679.04 620.879L678.944 619.884ZM657.145 568.237L656.268 568.718L656.274 568.729L657.145 568.237ZM624.924 518.721L624.058 518.221L623.727 518.795L624.126 519.323L624.924 518.721ZM625.376 517.939L626.242 518.439L626.581 517.852L626.162 517.32L625.376 517.939ZM605.864 491.327L605.029 491.878L605.036 491.888L605.864 491.327ZM590.86 461.739L590.745 460.746L589.456 460.895L589.929 462.103L590.86 461.739ZM654.631 454.381L655.622 454.515L655.795 453.24L654.517 453.387L654.631 454.381ZM657.751 516.634L658.711 516.356L658.708 516.346L657.751 516.634ZM720.765 566.966L720.729 567.966L720.765 566.966ZM751.425 558.162L751.95 559.012L751.425 558.162ZM793.013 484.518L792.016 484.441L793.013 484.518ZM784.251 444.118L783.369 444.589L783.374 444.598L784.251 444.118ZM699.084 399.132L698.087 399.063L698.012 400.148L699.099 400.132L699.084 399.132ZM692.477 334.865L691.537 335.206L691.541 335.216L692.477 334.865ZM657.339 295.047L656.839 295.913L657.339 295.047ZM598.483 286.643L598.807 287.589L598.807 287.589L598.483 286.643ZM533.761 372.971L534.741 373.171L534.742 373.165L533.761 372.971ZM530.891 411.77L530.997 412.765L531.95 412.663L531.889 411.706L530.891 411.77ZM508.41 414.172L507.429 414.368L507.608 415.263L508.516 415.166L508.41 414.172ZM508.333 413.788L509.314 413.592L509.118 412.612L508.137 412.808L508.333 413.788ZM446.745 407.986L446.044 408.699L446.745 407.986ZM426.786 355.626L425.809 355.842L425.809 355.842L426.786 355.626ZM425.67 350.553L426.647 350.339L425.67 350.553ZM396.228 268.858L397.063 268.309L396.228 268.858ZM292.993 209.569L293.127 208.578L292.993 209.569ZM170.133 254.956L169.395 254.282L170.133 254.956ZM110.625 348.776L109.74 348.311L110.625 348.776ZM103.913 361.516L103.03 361.047L103.913 361.516ZM40.3197 451.821L40.965 452.585L40.3197 451.821ZM-59.8636 475.385L-59.7025 474.398L-60.6894 474.237L-60.8506 475.224L-59.8636 475.385ZM-68.878 530.587L-69.865 530.426L-70.0261 531.413L-69.0392 531.574L-68.878 530.587ZM76.4149 494.549L75.7696 493.785L76.4149 494.549ZM153.316 387.743L154.199 388.212L153.316 387.743ZM160.118 374.869L161.003 375.335L161.003 375.335L160.118 374.869ZM160.134 374.839L159.249 374.373L159.249 374.373L160.134 374.839ZM160.153 374.803L159.269 374.336L159.269 374.337L160.153 374.803ZM211.415 292.697L212.153 293.372L211.415 292.697ZM285.505 264.999L285.371 265.99L285.505 264.999ZM349.485 299.577L348.65 300.127L349.485 299.577ZM371.731 365.715L370.755 365.931L370.76 365.953L370.766 365.974L371.731 365.715ZM371.732 365.715L372.708 365.499L372.703 365.478L372.697 365.457L371.732 365.715ZM372.178 367.731L373.154 367.515L373.154 367.515L372.178 367.731ZM372.386 368.669L373.362 368.453L372.386 368.669ZM407.521 447.862L406.82 448.575L407.521 447.862ZM473.128 473.156L473.995 473.656L474.833 472.204L473.157 472.157L473.128 473.156ZM472.67 473.951L471.804 473.451L470.832 475.133L472.767 474.946L472.67 473.951ZM480.547 473.187L480.528 472.187L480.489 472.188L480.45 472.192L480.547 473.187ZM510.047 470.327L509.951 469.331L509.918 469.335L509.885 469.34L510.047 470.327ZM541.633 467.264L542.593 466.986L542.362 466.189L541.537 466.269L541.633 467.264ZM563.432 518.912L564.308 518.43L564.302 518.42L563.432 518.912ZM595.652 568.427L596.518 568.927L596.849 568.354L596.451 567.825L595.652 568.427ZM595.2 569.21L594.334 568.71L593.996 569.296L594.415 569.828L595.2 569.21ZM614.713 595.821L615.548 595.27L615.541 595.26L614.713 595.821ZM629.717 625.409L629.831 626.403L631.12 626.254L630.648 625.045L629.717 625.409ZM565.946 632.768L564.955 632.634L564.782 633.909L566.06 633.761L565.946 632.768ZM562.826 570.514L561.865 570.793L561.868 570.803L562.826 570.514ZM499.811 520.182L499.848 519.183L499.811 520.182ZM427.564 602.63L426.567 602.554L427.564 602.63ZM436.325 643.03L437.207 642.559L437.203 642.55L436.325 643.03ZM521.492 688.016L522.49 688.085L522.565 687.001L521.478 687.016L521.492 688.016ZM528.099 752.284L529.039 751.942L529.036 751.933L528.099 752.284ZM622.094 800.506L622.417 801.452L622.094 800.506ZM686.816 714.178L685.836 713.977L685.835 713.984L686.816 714.178ZM689.686 675.378L689.58 674.384L688.626 674.486L688.688 675.443L689.686 675.378ZM713.474 672.837L713.58 673.831L714.086 673.777L714.34 673.337L713.474 672.837ZM713.629 672.568L713.533 671.572L713.021 671.622L712.763 672.068L713.629 672.568ZM780.713 666.064L781.674 665.785L781.442 664.988L780.617 665.068L780.713 666.064ZM802.512 717.711L803.389 717.23L803.383 717.219L802.512 717.711ZM829.968 760.794L830.834 761.294L831.159 760.732L830.777 760.206L829.968 760.794ZM829.734 761.2L828.868 760.7L828.529 761.287L828.948 761.819L829.734 761.2ZM849.246 787.812L850.081 787.261L850.074 787.251L849.246 787.812ZM864.25 817.4L864.364 818.393L865.653 818.244L865.181 817.036L864.25 817.4ZM800.479 824.758L799.488 824.624L799.315 825.899L800.593 825.752L800.479 824.758ZM797.359 762.505L796.399 762.783L796.402 762.793L797.359 762.505ZM734.345 712.173L734.381 711.173L734.345 712.173ZM662.097 794.621L661.1 794.544L662.097 794.621ZM670.859 835.021L671.741 834.55L671.736 834.541L670.859 835.021ZM756.026 880.007L757.023 880.076L757.098 878.991L756.011 879.007L756.026 880.007ZM762.633 944.274L763.573 943.933L763.569 943.923L762.633 944.274ZM856.627 992.496L856.951 993.443L856.627 992.496ZM921.349 906.168L920.369 905.968L920.368 905.974L921.349 906.168ZM924.219 867.369L924.113 866.374L923.16 866.476L923.221 867.433L924.219 867.369ZM948.007 864.827L948.114 865.822L948.619 865.768L948.873 865.327L948.007 864.827ZM948.117 864.638L948.02 863.643L947.508 863.692L947.251 864.138L948.117 864.638ZM1014.93 858.16L1015.89 857.882L1015.66 857.085L1014.84 857.165L1014.93 858.16ZM1036.73 909.807L1037.61 909.326L1037.6 909.315L1036.73 909.807ZM1064.19 952.898L1065.06 953.398L1065.38 952.835L1065 952.31L1064.19 952.898ZM1063.96 953.298L1063.1 952.798L1062.76 953.384L1063.18 953.916L1063.96 953.298ZM1083.48 979.909L1084.31 979.358L1084.3 979.348L1083.48 979.909ZM1098.48 1009.5L1098.59 1010.49L1099.88 1010.34L1099.41 1009.13L1098.48 1009.5ZM1034.71 1016.86L1033.72 1016.72L1033.54 1018L1034.82 1017.85L1034.71 1016.86ZM1031.59 954.602L1030.63 954.881L1030.63 954.891L1031.59 954.602ZM968.574 904.27L968.611 903.271L968.574 904.27ZM937.915 913.075L937.389 912.224L937.389 912.224L937.915 913.075ZM896.327 986.718L895.33 986.642L896.327 986.718ZM905.088 1027.12L905.97 1026.65L905.965 1026.64L905.088 1027.12ZM990.255 1072.1L991.253 1072.17L991.328 1071.09L990.241 1071.1L990.255 1072.1ZM996.862 1136.37L997.802 1136.03L997.799 1136.02L996.862 1136.37ZM1155.58 1098.27L1154.6 1098.07L1154.6 1098.07L1155.58 1098.27ZM1158.45 1059.47L1158.34 1058.47L1157.39 1058.57L1157.45 1059.53L1158.45 1059.47ZM1182.24 1056.92L1182.34 1057.92L1182.85 1057.87L1183.1 1057.42L1182.24 1056.92ZM1182.32 1056.77L1182.23 1055.78L1181.72 1055.83L1181.46 1056.27L1182.32 1056.77ZM1318.7 1013.77L1319.24 1014.61L1318.7 1013.77ZM1395.92 940.289L1395.14 939.663L1395.92 940.289ZM1404.97 928.928L1404.19 928.306L1404.97 928.928ZM1528.83 844.834L1528.71 843.84L1528.71 843.84L1528.83 844.834ZM1565.32 847.682L1565.68 846.749L1565.32 847.682ZM1584.65 862.719L1585.44 862.114L1584.65 862.719ZM1613.04 938.258L1612.07 938.509L1613.04 938.258ZM1614.41 943.54L1613.44 943.791L1614.41 943.54ZM1754.46 1122.56L1754.19 1123.53L1755.16 1123.79L1755.43 1122.83L1754.46 1122.56ZM694.506 451.361L694.51 450.361L693.564 450.357L693.508 451.301L694.506 451.361ZM696.508 484.138L695.529 484.342L695.529 484.344L696.508 484.138ZM709.881 453.727L710.146 452.763L710.135 452.76L709.881 453.727ZM743.24 478.103L742.331 478.52L743.24 478.103ZM729.96 509.962L729.666 509.007L729.631 509.018L729.597 509.031L729.96 509.962ZM580.406 386.415L579.433 386.182L579.43 386.199L579.426 386.215L580.406 386.415ZM608.848 348.429L608.633 347.452L608.622 347.455L608.611 347.457L608.848 348.429ZM651.048 372.794L650.108 373.135L650.112 373.144L650.115 373.153L651.048 372.794ZM655.815 401.587L655.894 402.584L656.811 402.511L656.815 401.591L655.815 401.587ZM577.863 407.734L576.864 407.709L576.837 408.818L577.942 408.73L577.863 407.734ZM526.071 635.787L526.066 636.787L527.012 636.791L527.069 635.847L526.071 635.787ZM524.069 603.01L525.048 602.806L525.047 602.804L524.069 603.01ZM510.696 633.421L510.431 634.385L510.442 634.388L510.696 633.421ZM490.616 577.186L490.911 578.142L490.946 578.131L490.98 578.117L490.616 577.186ZM640.171 700.733L641.143 700.966L641.147 700.95L641.15 700.933L640.171 700.733ZM611.729 738.719L611.944 739.696L611.954 739.694L611.965 739.691L611.729 738.719ZM569.528 714.355L570.468 714.013L570.465 714.004L570.462 713.995L569.528 714.355ZM564.761 685.561L564.683 684.565L563.765 684.637L563.761 685.557L564.761 685.561ZM642.713 679.415L643.713 679.439L643.74 678.331L642.635 678.418L642.713 679.415ZM935.588 682.938L934.609 683.141L934.609 683.143L935.588 682.938ZM933.586 650.16L933.59 649.16L932.644 649.156L932.588 650.101L933.586 650.16ZM969.04 708.762L968.746 707.806L968.711 707.817L968.677 707.83L969.04 708.762ZM982.32 676.902L981.411 677.319L982.32 676.902ZM948.961 652.527L949.226 651.562L949.215 651.56L948.961 652.527ZM819.486 585.215L818.513 584.981L818.51 584.998L818.506 585.014L819.486 585.215ZM816.943 606.533L815.944 606.509L815.917 607.617L817.022 607.53L816.943 606.533ZM894.895 600.386L894.974 601.383L895.891 601.311L895.895 600.391L894.895 600.386ZM890.128 571.593L889.188 571.934L889.192 571.943L889.195 571.952L890.128 571.593ZM847.928 547.228L847.713 546.252L847.702 546.254L847.691 546.257L847.928 547.228ZM760.604 827.778L760.6 828.778L761.546 828.782L761.602 827.838L760.604 827.778ZM758.602 795.001L759.581 794.797L759.581 794.795L758.602 795.001ZM745.229 825.412L744.964 826.376L744.975 826.379L745.229 825.412ZM711.87 801.037L712.779 800.619L712.779 800.619L711.87 801.037ZM725.15 769.177L725.444 770.132L725.479 770.121L725.513 770.108L725.15 769.177ZM874.704 892.724L875.676 892.957L875.68 892.941L875.684 892.924L874.704 892.724ZM846.262 930.71L846.477 931.687L846.488 931.684L846.499 931.682L846.262 930.71ZM804.062 906.345L805.002 906.004L804.998 905.995L804.995 905.986L804.062 906.345ZM799.295 877.552L799.216 876.555L798.299 876.628L798.295 877.548L799.295 877.552ZM877.247 871.405L878.246 871.43L878.273 870.321L877.168 870.409L877.247 871.405ZM992.831 987.098L993.811 986.894L993.81 986.892L992.831 987.098ZM994.833 1019.88L994.829 1020.88L995.775 1020.88L995.832 1019.94L994.833 1019.88ZM959.379 961.274L959.673 962.23L959.708 962.219L959.743 962.205L959.379 961.274ZM979.459 1017.51L979.194 1018.47L979.204 1018.48L979.459 1017.51ZM1108.93 1084.82L1109.91 1085.05L1109.91 1085.04L1109.91 1085.02L1108.93 1084.82ZM1111.48 1063.5L1112.48 1063.53L1112.5 1062.42L1111.4 1062.51L1111.48 1063.5ZM1033.52 1069.65L1033.45 1068.65L1032.53 1068.73L1032.52 1069.65L1033.52 1069.65ZM1038.29 1098.44L1039.23 1098.1L1039.23 1098.09L1039.22 1098.08L1038.29 1098.44ZM1080.49 1122.81L1080.71 1123.78L1080.72 1123.78L1080.73 1123.78L1080.49 1122.81ZM1167.81 842.257L1167.81 841.257L1166.86 841.253L1166.81 842.197L1167.81 842.257ZM1169.81 875.034L1168.83 875.238L1168.83 875.24L1169.81 875.034ZM1183.18 844.623L1183.45 843.659L1183.44 843.656L1183.18 844.623ZM1203.26 900.858L1202.97 899.902L1202.93 899.913L1202.9 899.927L1203.26 900.858ZM1053.71 777.311L1052.73 777.078L1052.73 777.094L1052.73 777.111L1053.71 777.311ZM1082.15 739.325L1081.93 738.348L1081.92 738.35L1081.91 738.353L1082.15 739.325ZM1124.35 763.689L1123.41 764.031L1123.41 764.04L1123.42 764.049L1124.35 763.689ZM1129.12 792.482L1129.19 793.479L1130.11 793.407L1130.12 792.487L1129.12 792.482ZM1051.16 798.629L1050.16 798.605L1050.14 799.713L1051.24 799.626L1051.16 798.629ZM1666.2 924.425C1675.13 958.747 1683.55 990.24 1698.37 1015.53C1713.23 1040.88 1734.53 1060.01 1769.17 1069.64L1769.71 1067.71C1735.61 1058.24 1714.72 1039.47 1700.1 1014.52C1685.44 989.511 1677.08 958.304 1668.14 923.921L1666.2 924.425ZM1665.84 923.026L1666.2 924.425L1668.14 923.921L1667.77 922.523L1665.84 923.026ZM1628.39 829.494C1648.32 855.732 1657.72 891.826 1665.84 923.026L1667.77 922.523C1659.68 891.416 1650.2 854.9 1629.98 828.284L1628.39 829.494ZM1585.1 796.432C1603.61 803.575 1617.65 815.348 1628.39 829.494L1629.98 828.284C1619.05 813.886 1604.72 801.86 1585.82 794.566L1585.1 796.432ZM1522.44 790.273C1545.96 787.52 1566.83 789.382 1585.1 796.432L1585.82 794.566C1567.17 787.371 1545.97 785.506 1522.21 788.286L1522.44 790.273ZM1362.5 894.006C1397.11 850.041 1436.25 800.359 1522.44 790.273L1522.21 788.286C1435.14 798.475 1395.56 848.776 1360.93 892.769L1362.5 894.006ZM1362.58 893.888L1362.58 893.887L1360.85 892.887L1360.85 892.888L1362.58 893.888ZM1353.08 905.901C1356.2 902.008 1359.33 898.031 1362.5 894.007L1360.93 892.77C1357.76 896.795 1354.64 900.765 1351.52 904.649L1353.08 905.901ZM1289.03 967.543C1315.29 950.685 1334.2 929.422 1353.08 905.901L1351.52 904.649C1332.67 928.13 1313.93 949.183 1287.95 965.86L1289.03 967.543ZM1177.03 1002.1C1228.34 997.522 1263.06 984.21 1289.03 967.543L1287.95 965.86C1262.29 982.332 1227.88 995.555 1176.85 1000.1L1177.03 1002.1ZM1177.94 1001.05L1177.93 1001.01L1175.94 1001.19L1175.94 1001.23L1177.94 1001.05ZM1147.8 1004.97L1177.04 1002.13L1176.84 1000.14L1147.61 1002.98L1147.8 1004.97ZM1125.04 952.817C1134.35 969.31 1141.59 986.454 1146.75 1004.25L1148.67 1003.69C1143.46 985.745 1136.17 968.458 1126.78 951.833L1125.04 952.817ZM1097.64 909.822C1107.98 924.048 1117.11 938.376 1125.03 952.806L1126.78 951.844C1118.82 937.335 1109.64 922.935 1099.25 908.646L1097.64 909.822ZM1097.81 908.334L1097.58 908.734L1099.31 909.734L1099.54 909.334L1097.81 908.334ZM1078.34 882.784C1084.21 891.456 1090.72 900.346 1097.89 909.453L1099.46 908.216C1092.32 899.143 1085.83 890.292 1079.99 881.662L1078.34 882.784ZM1063.23 852.999C1067.63 864.262 1072.66 874.189 1078.33 882.774L1080 881.672C1074.42 873.223 1069.45 863.425 1065.09 852.271L1063.23 852.999ZM1127.82 844.283L1064.05 851.641L1064.28 853.628L1128.05 846.269L1127.82 844.283ZM1132.01 907.241C1126.74 889.773 1125.7 869.173 1128.92 845.41L1126.94 845.142C1123.69 869.104 1124.73 890.006 1130.09 907.818L1132.01 907.241ZM1165.13 948.373C1148.13 938.559 1137.12 924.858 1132.01 907.251L1130.09 907.808C1135.35 925.946 1146.72 940.052 1164.13 950.105L1165.13 948.373ZM1194.1 956.862C1183.95 956.49 1174.3 953.664 1165.13 948.373L1164.13 950.105C1173.57 955.553 1183.54 958.476 1194.03 958.861L1194.1 956.862ZM1224.2 948.206C1214.22 954.367 1204.2 957.233 1194.1 956.862L1194.03 958.861C1204.58 959.248 1214.99 956.245 1225.25 949.908L1224.2 948.206ZM1251.72 917.212C1243.31 931.773 1234.13 942.073 1224.2 948.206L1225.25 949.908C1235.56 943.543 1244.95 932.946 1253.45 918.212L1251.72 917.212ZM1265.32 875.337C1264.23 889.418 1259.71 903.374 1251.72 917.212L1253.45 918.212C1261.57 904.148 1266.2 889.905 1267.31 875.49L1265.32 875.337ZM1256.67 835.494C1263.52 848.011 1266.4 861.285 1265.32 875.337L1267.31 875.49C1268.42 861.047 1265.46 847.387 1258.43 834.534L1256.67 835.494ZM1223.28 803.361C1238.97 812.422 1250.08 823.139 1256.67 835.485L1258.43 834.543C1251.62 821.786 1240.21 810.824 1224.28 801.629L1223.28 803.361ZM1172.4 791.028C1191.62 790.75 1208.57 794.871 1223.28 803.361L1224.28 801.629C1209.22 792.936 1191.91 788.746 1172.37 789.028L1172.4 791.028ZM1164.84 726.111C1170.99 742.54 1173.2 763.805 1171.39 789.959L1173.38 790.097C1175.2 763.784 1173 742.204 1166.71 725.41L1164.84 726.111ZM1130.14 686.808C1147.41 696.777 1158.94 709.878 1164.84 726.102L1166.72 725.419C1160.64 708.688 1148.75 695.244 1131.14 685.076L1130.14 686.808ZM1072.11 678.484C1090.32 672.254 1109.64 674.971 1130.14 686.808L1131.14 685.076C1110.26 673.019 1090.34 670.134 1071.46 676.592L1072.11 678.484ZM1024.5 722.78C1037.98 699.426 1053.87 684.725 1072.11 678.484L1071.46 676.592C1052.61 683.04 1036.4 698.168 1022.76 721.78L1024.5 722.78ZM1008.04 764.06C1010.61 751.117 1016.08 737.358 1024.5 722.78L1022.76 721.78C1014.27 736.499 1008.7 750.464 1006.08 763.672L1008.04 764.06ZM1005.19 802.601C1004.39 790.139 1005.33 777.295 1008.04 764.067L1006.08 763.666C1003.34 777.054 1002.38 790.077 1003.19 802.73L1005.19 802.601ZM980.509 806.202L1004.3 803.66L1004.09 801.672L980.297 804.213L980.509 806.202ZM981.16 805.897L981.269 805.707L979.537 804.707L979.428 804.897L981.16 805.897ZM913.573 812.87L980.39 806.392L980.197 804.401L913.38 810.879L913.573 812.87ZM890.807 760.719C900.121 777.212 907.356 794.357 912.516 812.153L914.437 811.596C909.233 793.648 901.937 776.361 892.549 759.736L890.807 760.719ZM863.413 717.732C873.754 731.955 882.883 746.281 890.802 760.709L892.555 759.746C884.593 745.24 875.418 730.843 865.031 716.556L863.413 717.732ZM863.59 716.238L863.356 716.644L865.088 717.644L865.322 717.238L863.59 716.238ZM844.116 690.687C849.986 699.36 856.505 708.25 863.67 717.356L865.242 716.119C858.103 707.047 851.613 698.195 845.772 689.566L844.116 690.687ZM829.009 660.902C833.409 672.165 838.441 682.093 844.109 690.678L845.778 689.576C840.2 681.127 835.229 671.329 830.872 660.175L829.009 660.902ZM893.597 652.186L829.825 659.545L830.055 661.532L893.826 654.173L893.597 652.186ZM897.788 715.145C892.524 697.677 891.479 677.077 894.702 653.314L892.72 653.045C889.47 677.008 890.505 697.91 895.873 715.722L897.788 715.145ZM930.912 756.277C913.913 746.462 902.896 732.762 897.791 715.155L895.87 715.712C901.129 733.85 912.5 747.956 929.912 758.009L930.912 756.277ZM959.882 764.766C949.73 764.393 940.077 761.568 930.912 756.277L929.912 758.009C939.348 763.457 949.317 766.38 959.809 766.765L959.882 764.766ZM989.979 756.11C980.004 762.271 969.977 765.137 959.882 764.766L959.809 766.765C970.357 767.152 980.77 764.148 991.03 757.812L989.979 756.11ZM1017.5 725.115C1009.09 739.677 999.91 749.977 989.979 756.11L991.03 757.812C1001.34 751.447 1010.73 740.85 1019.23 726.115L1017.5 725.115ZM1031.1 683.241C1030.01 697.322 1025.49 711.278 1017.5 725.115L1019.23 726.115C1027.35 712.052 1031.98 697.809 1033.09 683.394L1031.1 683.241ZM1022.45 643.397C1029.3 655.915 1032.18 669.188 1031.1 683.241L1033.09 683.394C1034.2 668.95 1031.24 655.291 1024.21 642.438L1022.45 643.397ZM989.059 611.264C1004.75 620.325 1015.85 631.043 1022.45 643.389L1024.21 642.446C1017.4 629.69 1005.99 618.728 990.059 609.532L989.059 611.264ZM938.179 598.931C957.404 598.654 974.354 602.774 989.059 611.264L990.059 609.532C975.003 600.84 957.689 596.649 938.15 596.932L938.179 598.931ZM930.621 534.015C936.772 550.444 938.976 571.709 937.167 597.862L939.162 598C940.983 571.688 938.782 550.108 932.494 533.314L930.621 534.015ZM895.919 494.712C913.185 504.681 924.722 517.782 930.617 534.006L932.497 533.323C926.417 516.592 914.529 503.147 896.919 492.98L895.919 494.712ZM837.887 486.388C856.098 480.157 875.416 482.875 895.919 494.712L896.919 492.98C876.035 480.923 856.115 478.038 837.239 484.496L837.887 486.388ZM790.276 530.684C803.76 507.33 819.647 492.629 837.887 486.388L837.239 484.496C818.392 490.944 802.177 506.071 788.544 529.684L790.276 530.684ZM773.822 571.964C776.385 559.02 781.86 545.262 790.276 530.684L788.544 529.684C780.046 544.403 774.475 558.368 771.86 571.576L773.822 571.964ZM770.969 610.505C770.165 598.042 771.114 585.198 773.821 571.97L771.861 571.569C769.122 584.958 768.157 597.98 768.973 610.634L770.969 610.505ZM746.289 614.105L770.077 611.564L769.865 609.575L746.076 612.117L746.289 614.105ZM746.893 613.88L747.049 613.611L745.317 612.611L745.161 612.88L746.893 613.88ZM679.04 620.879L746.124 614.375L745.931 612.385L678.847 618.889L679.04 620.879ZM656.274 568.729C665.587 585.222 672.823 602.366 677.983 620.162L679.904 619.606C674.7 601.657 667.403 584.37 658.016 567.745L656.274 568.729ZM624.126 519.323C636.444 535.653 647.157 552.118 656.268 568.718L658.021 567.756C648.861 551.065 638.094 534.519 625.723 518.119L624.126 519.323ZM624.51 517.439L624.058 518.221L625.79 519.221L626.242 518.439L624.51 517.439ZM605.036 491.888C610.906 500.561 617.424 509.45 624.59 518.557L626.162 517.32C619.023 508.247 612.533 499.396 606.692 490.767L605.036 491.888ZM589.929 462.103C594.329 473.366 599.361 483.294 605.029 491.878L606.698 490.776C601.12 482.328 596.149 472.53 591.791 461.375L589.929 462.103ZM654.517 453.387L590.745 460.746L590.975 462.733L654.746 455.374L654.517 453.387ZM658.708 516.346C653.444 498.878 652.399 478.277 655.622 454.515L653.64 454.246C650.39 478.209 651.425 499.111 656.793 516.923L658.708 516.346ZM691.832 557.477C674.833 547.663 663.816 533.962 658.711 516.356L656.79 516.913C662.049 535.051 673.42 549.156 690.832 559.21L691.832 557.477ZM720.802 565.967C710.65 565.594 700.997 562.769 691.832 557.477L690.832 559.21C700.268 564.657 710.237 567.58 720.729 567.966L720.802 565.967ZM750.899 557.311C740.924 563.472 730.897 566.338 720.802 565.967L720.729 567.966C731.277 568.353 741.69 565.349 751.95 559.012L750.899 557.311ZM778.422 526.316C770.014 540.878 760.83 551.178 750.899 557.311L751.95 559.012C762.256 552.648 771.647 542.051 780.154 527.316L778.422 526.316ZM792.016 484.441C790.933 498.522 786.411 512.478 778.422 526.316L780.154 527.316C788.273 513.252 792.901 499.01 794.01 484.595L792.016 484.441ZM783.374 444.598C790.219 457.115 793.096 470.389 792.016 484.441L794.01 484.595C795.121 470.151 792.157 456.492 785.129 443.638L783.374 444.598ZM749.979 412.465C765.673 421.526 776.775 432.244 783.369 444.589L785.133 443.647C778.319 430.891 766.906 419.929 750.979 410.733L749.979 412.465ZM699.099 400.132C718.324 399.854 735.274 403.975 749.979 412.465L750.979 410.733C735.923 402.04 718.609 397.85 699.07 398.132L699.099 400.132ZM691.541 335.216C697.692 351.645 699.896 372.91 698.087 399.063L700.082 399.201C701.903 372.888 699.702 351.308 693.414 334.514L691.541 335.216ZM656.839 295.913C674.105 305.882 685.642 318.983 691.537 335.206L693.417 334.523C687.337 317.792 675.449 304.348 657.839 294.181L656.839 295.913ZM598.807 287.589C617.018 281.358 636.336 284.075 656.839 295.913L657.839 294.181C636.955 282.124 617.035 279.238 598.159 285.697L598.807 287.589ZM551.196 331.885C564.68 308.53 580.567 293.83 598.807 287.589L598.159 285.697C579.312 292.145 563.097 307.272 549.464 330.885L551.196 331.885ZM534.742 373.165C537.305 360.221 542.78 346.462 551.196 331.885L549.464 330.885C540.966 345.603 535.395 359.569 532.78 372.776L534.742 373.165ZM531.889 411.706C531.085 399.243 532.034 386.399 534.741 373.171L532.781 372.77C530.042 386.159 529.077 399.181 529.893 411.835L531.889 411.706ZM508.516 415.166L530.997 412.765L530.785 410.776L508.304 413.178L508.516 415.166ZM507.353 413.985L507.429 414.368L509.391 413.976L509.314 413.592L507.353 413.985ZM446.044 408.699C452.571 415.12 467.109 423.052 508.529 414.769L508.137 412.808C467.008 421.033 453.289 413.021 447.446 407.274L446.044 408.699ZM425.809 355.842C428.929 369.915 431.709 380.876 434.833 389.424C437.959 397.974 441.453 404.184 446.044 408.699L447.446 407.274C443.152 403.05 439.786 397.148 436.712 388.737C433.637 380.324 430.88 369.474 427.762 355.41L425.809 355.842ZM424.693 350.767C425.072 352.496 425.443 354.189 425.809 355.842L427.762 355.41C427.396 353.759 427.026 352.068 426.647 350.339L424.693 350.767ZM395.392 269.407C412.59 295.576 419.401 326.614 424.693 350.767L426.647 350.339C421.365 326.234 414.495 294.834 397.063 268.309L395.392 269.407ZM292.859 210.56C343.533 217.406 375.494 239.131 395.392 269.407L397.063 268.309C376.813 237.496 344.309 215.493 293.127 208.578L292.859 210.56ZM170.871 255.631C200.051 223.714 238.797 203.257 292.859 210.56L293.127 208.578C238.303 201.172 198.935 221.97 169.395 254.282L170.871 255.631ZM111.511 349.241C128.36 317.139 146.873 281.88 170.871 255.631L169.395 254.282C145.19 280.757 126.561 316.264 109.74 348.311L111.511 349.241ZM104.796 361.985C107.01 357.816 109.245 353.557 111.511 349.241L109.74 348.311C107.474 352.628 105.241 356.883 103.03 361.047L104.796 361.985ZM40.965 452.585C66.186 431.279 85.0306 399.217 104.796 361.985L103.03 361.047C83.2505 398.304 64.5625 430.033 39.6743 451.057L40.965 452.585ZM-60.0248 476.372C-12.9499 484.059 17.4879 472.418 40.965 452.585L39.6743 451.057C16.6583 470.501 -13.1857 481.994 -59.7025 474.398L-60.0248 476.372ZM-67.8911 530.748L-58.8767 475.546L-60.8506 475.224L-69.865 530.426L-67.8911 530.748ZM75.7696 493.785C39.8522 524.127 -6.60164 539.743 -68.7169 529.6L-69.0392 531.574C-6.36646 541.808 40.6813 526.045 77.0602 495.313L75.7696 493.785ZM152.433 387.274C132.998 423.883 109.944 464.915 75.7696 493.785L77.0602 495.313C111.566 466.163 134.775 424.8 154.199 388.212L152.433 387.274ZM159.234 374.403C157.012 378.619 154.749 382.911 152.433 387.274L154.199 388.212C156.517 383.846 158.781 379.551 161.003 375.335L159.234 374.403ZM159.249 374.373L159.233 374.403L161.003 375.335L161.019 375.305L159.249 374.373ZM159.269 374.337L159.249 374.373L161.019 375.305L161.038 375.269L159.269 374.337ZM210.677 292.022C191.716 312.762 176.72 341.227 159.269 374.336L161.038 375.269C178.527 342.088 193.402 313.882 212.153 293.372L210.677 292.022ZM285.639 264.008C268.905 261.747 255.016 263.416 242.861 268.344C230.713 273.269 220.368 281.422 210.677 292.022L212.153 293.372C221.712 282.916 231.822 274.978 243.612 270.197C255.395 265.42 268.926 263.768 285.371 265.99L285.639 264.008ZM350.321 299.028C339.92 283.202 322.589 269 285.639 264.008L285.371 265.99C321.811 270.913 338.6 284.835 348.65 300.127L350.321 299.028ZM372.708 365.499C366.759 338.644 361.9 316.648 350.321 299.028L348.65 300.127C359.987 317.377 364.784 338.973 370.755 365.931L372.708 365.499ZM372.697 365.457L372.697 365.456L370.766 365.974L370.766 365.974L372.697 365.457ZM373.154 367.515L372.708 365.499L370.755 365.932L371.202 367.948L373.154 367.515ZM373.362 368.453L373.154 367.515L371.202 367.948L371.41 368.885L373.362 368.453ZM408.223 447.149C385.976 425.266 378.761 392.819 373.362 368.453L371.41 368.885C376.784 393.145 384.083 426.209 406.82 448.575L408.223 447.149ZM473.157 472.157C446.373 471.398 424.777 463.433 408.223 447.149L406.82 448.575C423.81 465.287 445.927 473.386 473.1 474.156L473.157 472.157ZM473.536 474.451L473.995 473.656L472.262 472.656L471.804 473.451L473.536 474.451ZM480.45 472.192L472.574 472.955L472.767 474.946L480.643 474.182L480.45 472.192ZM509.885 469.34C499.525 471.048 489.74 472.01 480.528 472.187L480.566 474.187C489.889 474.008 499.771 473.034 510.21 471.313L509.885 469.34ZM541.537 466.269L509.951 469.331L510.144 471.322L541.73 468.26L541.537 466.269ZM564.302 518.42C554.989 501.927 547.753 484.782 542.593 466.986L540.673 467.543C545.877 485.491 553.173 502.778 562.561 519.403L564.302 518.42ZM596.451 567.825C584.133 551.495 573.42 535.03 564.308 518.43L562.555 519.393C571.716 536.083 582.483 552.629 594.854 569.03L596.451 567.825ZM596.066 569.71L596.518 568.927L594.786 567.927L594.334 568.71L596.066 569.71ZM615.541 595.26C609.671 586.588 603.152 577.698 595.986 568.591L594.415 569.828C601.554 578.901 608.044 587.752 613.885 596.382L615.541 595.26ZM630.648 625.045C626.248 613.782 621.216 603.855 615.547 595.27L613.878 596.372C619.457 604.821 624.427 614.619 628.785 625.773L630.648 625.045ZM566.06 633.761L629.831 626.403L629.602 624.416L565.831 631.775L566.06 633.761ZM561.868 570.803C567.133 588.271 568.178 608.871 564.955 632.634L566.936 632.902C570.187 608.94 569.152 588.038 563.783 570.226L561.868 570.803ZM528.744 529.671C545.743 539.485 556.761 553.186 561.866 570.793L563.786 570.236C558.527 552.098 547.157 537.992 529.744 527.939L528.744 529.671ZM499.775 521.181C509.927 521.554 519.579 524.38 528.744 529.671L529.744 527.939C520.309 522.491 510.339 519.568 499.848 519.183L499.775 521.181ZM469.677 529.838C479.653 523.677 489.68 520.811 499.775 521.181L499.848 519.183C489.3 518.796 478.887 521.799 468.626 528.136L469.677 529.838ZM442.155 560.832C450.562 546.271 459.747 535.971 469.677 529.838L468.626 528.136C458.321 534.501 448.93 545.098 440.423 559.832L442.155 560.832ZM428.561 602.707C429.644 588.626 434.166 574.67 442.155 560.832L440.423 559.832C432.303 573.896 427.675 588.139 426.567 602.554L428.561 602.707ZM437.203 642.55C430.358 630.033 427.48 616.759 428.561 602.707L426.567 602.554C425.456 616.997 428.419 630.657 435.448 643.51L437.203 642.55ZM470.598 674.683C454.904 665.622 443.802 654.905 437.207 642.559L435.443 643.501C442.257 656.258 453.67 667.22 469.598 676.415L470.598 674.683ZM521.478 687.016C502.252 687.294 485.303 683.173 470.598 674.683L469.598 676.415C484.654 685.108 501.967 689.298 521.507 689.016L521.478 687.016ZM529.036 751.933C522.884 735.504 520.68 714.239 522.49 688.085L520.495 687.947C518.674 714.26 520.875 735.84 527.163 752.634L529.036 751.933ZM563.738 791.236C546.471 781.267 534.935 768.166 529.039 751.942L527.16 752.625C533.239 769.356 545.128 782.8 562.738 792.968L563.738 791.236ZM621.77 799.56C603.559 805.79 584.241 803.073 563.738 791.236L562.738 792.968C583.622 805.025 603.541 807.91 622.417 801.452L621.77 799.56ZM669.38 755.264C655.897 778.618 640.01 793.319 621.77 799.56L622.417 801.452C641.264 795.004 657.48 779.876 671.112 756.264L669.38 755.264ZM685.835 713.984C683.272 726.927 677.797 740.686 669.38 755.264L671.112 756.264C679.61 741.545 685.181 727.58 687.797 714.372L685.835 713.984ZM688.688 675.443C689.492 687.905 688.543 700.749 685.836 713.977L687.795 714.378C690.535 700.99 691.5 687.967 690.684 675.314L688.688 675.443ZM713.368 671.842L689.58 674.384L689.792 676.373L713.58 673.831L713.368 671.842ZM712.763 672.068L712.608 672.337L714.34 673.337L714.495 673.068L712.763 672.068ZM780.617 665.068L713.533 671.572L713.726 673.563L780.81 667.059L780.617 665.068ZM803.383 717.219C794.069 700.726 786.834 683.582 781.674 665.785L779.753 666.342C784.957 684.291 792.253 701.578 801.641 718.203L803.383 717.219ZM830.777 760.206C820.436 745.983 811.307 731.657 803.388 717.23L801.635 718.192C809.597 732.698 818.772 747.095 829.159 761.382L830.777 760.206ZM830.6 761.7L830.834 761.294L829.102 760.294L828.868 760.7L830.6 761.7ZM850.074 787.251C844.204 778.578 837.685 769.689 830.52 760.582L828.948 761.819C836.087 770.892 842.577 779.743 848.418 788.372L850.074 787.251ZM865.181 817.036C860.781 805.773 855.749 795.846 850.081 787.261L848.412 788.363C853.99 796.811 858.961 806.609 863.318 817.764L865.181 817.036ZM800.593 825.752L864.364 818.393L864.135 816.406L800.364 823.765L800.593 825.752ZM796.402 762.793C801.666 780.261 802.711 800.862 799.488 824.624L801.47 824.893C804.72 800.93 803.685 780.028 798.317 762.216L796.402 762.793ZM763.278 721.662C780.277 731.476 791.294 745.177 796.399 762.783L798.32 762.226C793.061 744.088 781.69 729.983 764.278 719.93L763.278 721.662ZM734.308 713.172C744.46 713.545 754.113 716.37 763.278 721.662L764.278 719.93C754.842 714.482 744.873 711.559 734.381 711.173L734.308 713.172ZM704.211 721.828C714.186 715.667 724.213 712.801 734.308 713.172L734.381 711.173C723.833 710.786 713.42 713.79 703.16 720.127L704.211 721.828ZM676.688 752.823C685.096 738.261 694.28 727.961 704.211 721.828L703.16 720.127C692.854 726.492 683.463 737.088 674.956 751.823L676.688 752.823ZM663.094 794.698C664.177 780.617 668.699 766.661 676.688 752.823L674.956 751.823C666.837 765.887 662.209 780.129 661.1 794.544L663.094 794.698ZM671.736 834.541C664.891 822.024 662.013 808.75 663.094 794.698L661.1 794.544C659.989 808.988 662.953 822.647 669.981 835.501L671.736 834.541ZM705.131 866.674C689.437 857.613 678.335 846.895 671.741 834.55L669.977 835.492C676.79 848.248 688.204 859.21 704.131 868.406L705.131 866.674ZM756.011 879.007C736.786 879.285 719.836 875.164 705.131 866.674L704.131 868.406C719.187 877.099 736.501 881.289 756.04 881.007L756.011 879.007ZM763.569 943.923C757.418 927.494 755.214 906.229 757.023 880.076L755.028 879.938C753.207 906.251 755.408 927.831 761.696 944.625L763.569 943.923ZM798.271 983.226C781.005 973.257 769.468 960.156 763.573 943.933L761.693 944.616C767.773 961.347 779.661 974.791 797.271 984.958L798.271 983.226ZM856.303 991.55C838.092 997.781 818.774 995.064 798.271 983.226L797.271 984.958C818.155 997.015 838.075 999.901 856.951 993.443L856.303 991.55ZM903.914 947.254C890.43 970.609 874.543 985.309 856.303 991.55L856.951 993.443C875.798 986.994 892.013 971.867 905.646 948.254L903.914 947.254ZM920.368 905.974C917.805 918.918 912.33 932.677 903.914 947.254L905.646 948.254C914.144 933.536 919.715 919.57 922.33 906.363L920.368 905.974ZM923.221 867.433C924.025 879.896 923.076 892.74 920.369 905.968L922.329 906.369C925.069 892.98 926.033 879.958 925.217 867.304L923.221 867.433ZM947.901 863.833L924.113 866.374L924.325 868.363L948.114 865.822L947.901 863.833ZM947.251 864.138L947.141 864.327L948.873 865.327L948.983 865.138L947.251 864.138ZM1014.84 857.165L948.02 863.643L948.213 865.633L1015.03 859.155L1014.84 857.165ZM1037.6 909.315C1028.29 892.822 1021.05 875.678 1015.89 857.882L1013.97 858.438C1019.18 876.387 1026.47 893.674 1035.86 910.299L1037.6 909.315ZM1065 952.31C1054.66 938.084 1045.53 923.756 1037.61 909.326L1035.86 910.288C1043.82 924.797 1053 939.197 1063.39 953.486L1065 952.31ZM1064.83 953.798L1065.06 953.398L1063.33 952.398L1063.1 952.798L1064.83 953.798ZM1084.3 979.348C1078.43 970.676 1071.91 961.786 1064.75 952.679L1063.18 953.916C1070.32 962.989 1076.81 971.84 1082.65 980.47L1084.3 979.348ZM1099.41 1009.13C1095.01 997.87 1089.98 987.943 1084.31 979.358L1082.64 980.46C1088.22 988.909 1093.19 998.707 1097.55 1009.86L1099.41 1009.13ZM1034.82 1017.85L1098.59 1010.49L1098.36 1008.5L1034.59 1015.86L1034.82 1017.85ZM1030.63 954.891C1035.9 972.359 1036.94 992.959 1033.72 1016.72L1035.7 1016.99C1038.95 993.028 1037.91 972.126 1032.55 954.314L1030.63 954.891ZM997.507 913.759C1014.51 923.573 1025.52 937.274 1030.63 954.881L1032.55 954.324C1027.29 936.186 1015.92 922.08 998.507 912.027L997.507 913.759ZM968.537 905.269C978.69 905.642 988.342 908.468 997.507 913.759L998.507 912.027C989.071 906.579 979.102 903.656 968.611 903.271L968.537 905.269ZM938.44 913.926C948.416 907.765 958.442 904.899 968.537 905.269L968.611 903.271C958.063 902.884 947.65 905.887 937.389 912.224L938.44 913.926ZM910.918 944.92C919.325 930.359 928.51 920.059 938.44 913.926L937.389 912.224C927.083 918.589 917.693 929.186 909.186 943.92L910.918 944.92ZM897.324 986.795C898.407 972.714 902.929 958.758 910.918 944.92L909.186 943.92C901.066 957.984 896.438 972.227 895.33 986.642L897.324 986.795ZM905.965 1026.64C899.12 1014.12 896.243 1000.85 897.324 986.795L895.33 986.642C894.219 1001.09 897.182 1014.74 904.211 1027.6L905.965 1026.64ZM939.36 1058.77C923.666 1049.71 912.565 1038.99 905.97 1026.65L904.206 1027.59C911.02 1040.35 922.433 1051.31 938.36 1060.5L939.36 1058.77ZM990.241 1071.1C971.015 1071.38 954.065 1067.26 939.36 1058.77L938.36 1060.5C953.417 1069.2 970.73 1073.39 990.27 1073.1L990.241 1071.1ZM997.799 1136.02C991.647 1119.59 989.443 1098.33 991.253 1072.17L989.258 1072.04C987.437 1098.35 989.637 1119.93 995.926 1136.72L997.799 1136.02ZM1032.5 1175.32C1015.23 1165.35 1003.7 1152.25 997.802 1136.03L995.922 1136.71C1002 1153.44 1013.89 1166.89 1031.5 1177.06L1032.5 1175.32ZM1090.53 1183.65C1072.32 1189.88 1053 1187.16 1032.5 1175.32L1031.5 1177.06C1052.38 1189.11 1072.3 1192 1091.18 1185.54L1090.53 1183.65ZM1138.14 1139.35C1124.66 1162.71 1108.77 1177.41 1090.53 1183.65L1091.18 1185.54C1110.03 1179.09 1126.24 1163.96 1139.88 1140.35L1138.14 1139.35ZM1154.6 1098.07C1152.03 1111.02 1146.56 1124.77 1138.14 1139.35L1139.88 1140.35C1148.37 1125.63 1153.94 1111.67 1156.56 1098.46L1154.6 1098.07ZM1157.45 1059.53C1158.25 1071.99 1157.31 1084.84 1154.6 1098.07L1156.56 1098.47C1159.3 1085.08 1160.26 1072.06 1159.45 1059.4L1157.45 1059.53ZM1182.13 1055.93L1158.34 1058.47L1158.55 1060.46L1182.34 1057.92L1182.13 1055.93ZM1181.46 1056.27L1181.37 1056.42L1183.1 1057.42L1183.19 1057.27L1181.46 1056.27ZM1318.16 1012.93C1284.08 1034.81 1240.9 1050.49 1182.23 1055.78L1182.41 1057.77C1241.36 1052.46 1284.86 1036.69 1319.24 1014.61L1318.16 1012.93ZM1395.14 939.663C1375.37 964.279 1352.03 991.192 1318.16 1012.93L1319.24 1014.61C1353.39 992.694 1376.9 965.572 1396.69 940.915L1395.14 939.663ZM1404.19 928.306C1401.24 932.014 1398.23 935.802 1395.14 939.663L1396.69 940.915C1399.8 937.049 1402.81 933.257 1405.75 929.55L1404.19 928.306ZM1528.71 843.84C1497.07 847.543 1474.7 857.59 1455.84 872.288C1437.01 886.956 1421.71 906.24 1404.19 928.306L1405.75 929.55C1423.31 907.44 1438.46 888.36 1457.07 873.866C1475.63 859.401 1497.65 849.489 1528.94 845.827L1528.71 843.84ZM1565.68 846.749C1557.53 843.605 1545.88 841.831 1528.71 843.84L1528.94 845.827C1545.88 843.845 1557.19 845.615 1564.96 848.615L1565.68 846.749ZM1585.44 862.114C1579.87 854.783 1573.59 849.802 1565.68 846.749L1564.96 848.615C1572.48 851.516 1578.47 856.246 1583.85 863.323L1585.44 862.114ZM1614.01 938.006C1605.03 903.498 1597.84 878.436 1585.44 862.114L1583.85 863.323C1595.95 879.261 1603.06 903.881 1612.07 938.509L1614.01 938.006ZM1615.38 943.289C1614.91 941.508 1614.46 939.746 1614.01 938.006L1612.07 938.509C1612.52 940.249 1612.98 942.01 1613.44 943.791L1615.38 943.289ZM1754.73 1121.6C1654.39 1093.72 1631.73 1006.43 1615.38 943.289L1613.44 943.791C1629.76 1006.81 1652.62 1095.3 1754.19 1123.53L1754.73 1121.6ZM1768.47 1068.4L1753.5 1122.3L1755.43 1122.83L1770.4 1068.94L1768.47 1068.4ZM693.508 451.301C692.784 463.359 693.454 474.375 695.529 484.342L697.487 483.935C695.454 474.17 694.789 463.334 695.504 451.421L693.508 451.301ZM710.135 452.76C704.164 451.189 698.951 450.381 694.51 450.361L694.502 452.361C698.719 452.38 703.756 453.15 709.626 454.694L710.135 452.76ZM727.283 459.83C722.088 456.831 716.374 454.476 710.146 452.763L709.615 454.692C715.693 456.363 721.247 458.655 726.283 461.562L727.283 459.83ZM744.148 477.685C740.753 470.3 735.112 464.35 727.283 459.83L726.283 461.562C733.799 465.902 739.13 471.557 742.331 478.52L744.148 477.685ZM742.207 501.222C746.904 493.086 747.604 485.203 744.148 477.685L742.331 478.52C745.471 485.351 744.906 492.547 740.475 500.222L742.207 501.222ZM730.255 510.918C735.41 509.33 739.402 506.08 742.207 501.222L740.475 500.222C737.909 504.665 734.315 507.575 729.666 509.007L730.255 510.918ZM712.489 508.006C719.138 511.844 725.126 512.925 730.324 510.894L729.597 509.031C725.187 510.754 719.861 509.952 713.489 506.274L712.489 508.006ZM695.529 484.344C697.738 494.847 703.401 502.758 712.489 508.006L713.489 506.274C704.907 501.318 699.582 493.895 697.486 483.933L695.529 484.344ZM588.63 363.727C584.293 371.24 581.223 378.725 579.433 386.182L581.378 386.649C583.117 379.402 586.108 372.096 590.362 364.727L588.63 363.727ZM608.611 347.457C600.356 349.465 593.702 354.943 588.63 363.727L590.362 364.727C595.224 356.306 601.471 351.252 609.084 349.401L608.611 347.457ZM631.712 350.71C624.736 346.682 617.024 345.608 608.633 347.452L609.062 349.406C617.005 347.66 624.202 348.683 630.712 352.442L631.712 350.71ZM651.988 372.452C648.89 363.926 642.075 356.693 631.712 350.71L630.712 352.442C640.81 358.272 647.219 365.184 650.108 373.135L651.988 372.452ZM656.815 401.591C656.864 390.669 655.26 380.944 651.981 372.434L650.115 373.153C653.288 381.389 654.863 390.859 654.815 401.582L656.815 401.591ZM577.942 408.73L655.894 402.584L655.737 400.59L577.785 406.737L577.942 408.73ZM579.426 386.215C577.884 393.751 577.028 400.917 576.864 407.709L578.863 407.758C579.025 401.098 579.864 394.052 581.386 386.616L579.426 386.215ZM527.069 635.847C527.793 623.79 527.123 612.774 525.048 602.806L523.09 603.214C525.123 612.979 525.788 623.814 525.072 635.727L527.069 635.847ZM510.442 634.388C516.413 635.96 521.626 636.767 526.066 636.787L526.075 634.787C521.857 634.768 516.82 633.999 510.951 632.454L510.442 634.388ZM493.293 627.318C498.488 630.318 504.202 632.672 510.431 634.385L510.961 632.457C504.884 630.785 499.329 628.494 494.293 625.586L493.293 627.318ZM476.428 609.464C479.823 616.849 485.464 622.798 493.293 627.318L494.293 625.586C486.777 621.247 481.447 615.592 478.246 608.628L476.428 609.464ZM478.37 585.926C473.673 594.062 472.972 601.945 476.428 609.464L478.246 608.628C475.106 601.798 475.671 594.601 480.102 586.926L478.37 585.926ZM490.322 576.23C485.166 577.818 481.174 581.069 478.37 585.926L480.102 586.926C482.667 582.483 486.262 579.574 490.911 578.142L490.322 576.23ZM508.087 579.143C501.439 575.304 495.45 574.224 490.252 576.254L490.98 578.117C495.389 576.395 500.715 577.196 507.087 580.875L508.087 579.143ZM525.047 602.804C522.838 592.301 517.175 584.39 508.087 579.143L507.087 580.875C515.67 585.83 520.995 593.253 523.09 603.216L525.047 602.804ZM631.947 723.421C636.284 715.908 639.353 708.423 641.143 700.966L639.198 700.5C637.459 707.746 634.469 715.053 630.215 722.421L631.947 723.421ZM611.965 739.691C620.221 737.683 626.875 732.205 631.947 723.421L630.215 722.421C625.353 730.842 619.105 735.896 611.493 737.748L611.965 739.691ZM588.865 736.439C595.84 740.466 603.553 741.541 611.944 739.696L611.514 737.743C603.572 739.489 596.375 738.465 589.865 734.707L588.865 736.439ZM568.589 714.696C571.687 723.223 578.501 730.456 588.865 736.439L589.865 734.707C579.767 728.877 573.357 721.964 570.468 714.013L568.589 714.696ZM563.761 685.557C563.713 696.479 565.316 706.204 568.595 714.714L570.462 713.995C567.288 705.76 565.714 696.289 565.761 685.566L563.761 685.557ZM642.635 678.418L564.683 684.565L564.84 686.558L642.792 680.412L642.635 678.418ZM641.15 700.933C642.693 693.397 643.548 686.232 643.713 679.439L641.714 679.391C641.552 686.05 640.713 693.097 639.191 700.532L641.15 700.933ZM936.567 682.734C934.534 672.969 933.869 662.133 934.584 650.22L932.588 650.101C931.864 662.158 932.534 673.174 934.609 683.141L936.567 682.734ZM952.569 705.073C943.987 700.118 938.662 692.695 936.567 682.732L934.609 683.143C936.819 693.647 942.481 701.558 951.569 706.805L952.569 705.073ZM968.677 707.83C964.267 709.553 958.942 708.752 952.569 705.073L951.569 706.805C958.218 710.643 964.206 711.724 969.404 709.693L968.677 707.83ZM979.555 699.021C976.99 703.464 973.395 706.374 968.746 707.806L969.335 709.717C974.49 708.129 978.482 704.879 981.287 700.021L979.555 699.021ZM981.411 677.319C984.551 684.15 983.986 691.347 979.555 699.021L981.287 700.021C985.984 691.886 986.684 684.002 983.228 676.484L981.411 677.319ZM965.363 660.361C972.879 664.701 978.21 670.356 981.411 677.319L983.228 676.484C979.833 669.099 974.192 663.15 966.363 658.629L965.363 660.361ZM948.695 653.491C954.773 655.163 960.327 657.454 965.363 660.361L966.363 658.629C961.168 655.63 955.455 653.276 949.226 651.562L948.695 653.491ZM933.582 651.16C937.799 651.179 942.836 651.949 948.706 653.494L949.215 651.56C943.244 649.988 938.031 649.18 933.59 649.16L933.582 651.16ZM820.458 585.448C822.197 578.202 825.188 570.895 829.442 563.527L827.71 562.527C823.373 570.039 820.303 577.524 818.513 584.981L820.458 585.448ZM817.943 606.557C818.105 599.898 818.944 592.851 820.466 585.415L818.506 585.014C816.964 592.551 816.108 599.716 815.944 606.509L817.943 606.557ZM894.817 599.389L816.865 605.536L817.022 607.53L894.974 601.383L894.817 599.389ZM889.195 571.952C892.368 580.188 893.943 589.659 893.895 600.382L895.895 600.391C895.944 589.469 894.341 579.744 891.061 571.233L889.195 571.952ZM869.792 551.241C879.89 557.071 886.299 563.983 889.188 571.934L891.068 571.251C887.97 562.725 881.155 555.492 870.792 549.509L869.792 551.241ZM848.142 548.205C856.085 546.459 863.282 547.482 869.792 551.241L870.792 549.509C863.816 545.482 856.104 544.407 847.713 546.252L848.142 548.205ZM829.442 563.527C834.304 555.106 840.551 550.051 848.164 548.2L847.691 546.257C839.436 548.264 832.782 553.742 827.71 562.527L829.442 563.527ZM761.602 827.838C762.326 815.781 761.656 804.764 759.581 794.797L757.623 795.204C759.656 804.969 760.321 815.805 759.606 827.718L761.602 827.838ZM744.975 826.379C750.946 827.95 756.159 828.758 760.6 828.778L760.608 826.778C756.391 826.759 751.354 825.989 745.484 824.445L744.975 826.379ZM727.827 819.309C733.022 822.308 738.735 824.663 744.964 826.376L745.495 824.447C739.417 822.776 733.863 820.484 728.827 817.577L727.827 819.309ZM710.962 801.454C714.357 808.839 719.998 814.789 727.827 819.309L728.827 817.577C721.311 813.237 715.98 807.583 712.779 800.619L710.962 801.454ZM712.903 777.917C708.206 786.053 707.506 793.936 710.962 801.454L712.779 800.619C709.639 793.788 710.204 786.592 714.635 778.917L712.903 777.917ZM724.855 768.221C719.7 769.809 715.708 773.059 712.903 777.917L714.635 778.917C717.2 774.474 720.795 771.564 725.444 770.132L724.855 768.221ZM742.621 771.133C735.972 767.295 729.984 766.214 724.786 768.245L725.513 770.108C729.923 768.385 735.248 769.187 741.621 772.865L742.621 771.133ZM759.581 794.795C757.371 784.292 751.709 776.381 742.621 771.133L741.621 772.865C750.203 777.821 755.528 785.244 757.623 795.206L759.581 794.795ZM866.48 915.412C870.817 907.899 873.887 900.414 875.676 892.957L873.732 892.49C871.993 899.737 869.002 907.043 864.748 914.412L866.48 915.412ZM846.499 931.682C854.754 929.674 861.408 924.196 866.48 915.412L864.748 914.412C859.886 922.833 853.639 927.887 846.026 929.738L846.499 931.682ZM823.398 928.429C830.374 932.457 838.086 933.531 846.477 931.687L846.048 929.733C838.105 931.479 830.908 930.456 824.398 926.697L823.398 928.429ZM803.122 906.687C806.22 915.213 813.035 922.446 823.398 928.429L824.398 926.697C814.3 920.867 807.891 913.955 805.002 906.004L803.122 906.687ZM798.295 877.548C798.246 888.47 799.849 898.195 803.129 906.705L804.995 905.986C801.822 897.75 800.247 888.28 800.295 877.557L798.295 877.548ZM877.168 870.409L799.216 876.555L799.373 878.549L877.325 872.402L877.168 870.409ZM875.684 892.924C877.226 885.388 878.082 878.222 878.246 871.43L876.247 871.381C876.085 878.041 875.246 885.088 873.724 892.523L875.684 892.924ZM991.852 987.302C993.885 997.067 994.55 1007.9 993.835 1019.82L995.832 1019.94C996.555 1007.88 995.886 996.862 993.811 986.894L991.852 987.302ZM975.85 964.963C984.432 969.918 989.757 977.341 991.853 987.304L993.81 986.892C991.601 976.389 985.938 968.478 976.85 963.231L975.85 964.963ZM959.743 962.205C964.152 960.483 969.478 961.284 975.85 964.963L976.85 963.231C970.201 959.392 964.213 958.312 959.015 960.343L959.743 962.205ZM948.865 971.014C951.43 966.571 955.025 963.662 959.673 962.23L959.085 960.318C953.929 961.906 949.937 965.157 947.133 970.014L948.865 971.014ZM947.008 992.716C943.868 985.886 944.434 978.689 948.865 971.014L947.133 970.014C942.436 978.15 941.735 986.033 945.191 993.552L947.008 992.716ZM963.056 1009.67C955.54 1005.33 950.21 999.68 947.008 992.716L945.191 993.552C948.586 1000.94 954.227 1006.89 962.056 1011.41L963.056 1009.67ZM979.724 1016.54C973.646 1014.87 968.092 1012.58 963.056 1009.67L962.056 1011.41C967.251 1014.41 972.965 1016.76 979.194 1018.47L979.724 1016.54ZM994.838 1018.88C990.62 1018.86 985.583 1018.09 979.713 1016.54L979.204 1018.48C985.176 1020.05 990.389 1020.86 994.829 1020.88L994.838 1018.88ZM1107.96 1084.59C1106.22 1091.83 1103.23 1099.14 1098.98 1106.51L1100.71 1107.51C1105.05 1100 1108.12 1092.51 1109.91 1085.05L1107.96 1084.59ZM1110.48 1063.48C1110.31 1070.14 1109.48 1077.18 1107.95 1084.62L1109.91 1085.02C1111.46 1077.49 1112.31 1070.32 1112.48 1063.53L1110.48 1063.48ZM1033.6 1070.65L1111.55 1064.5L1111.4 1062.51L1033.45 1068.65L1033.6 1070.65ZM1039.22 1098.08C1036.05 1089.85 1034.48 1080.38 1034.52 1069.65L1032.52 1069.65C1032.48 1080.57 1034.08 1090.29 1037.36 1098.8L1039.22 1098.08ZM1058.63 1118.79C1048.53 1112.96 1042.12 1106.05 1039.23 1098.1L1037.35 1098.78C1040.45 1107.31 1047.26 1114.54 1057.63 1120.53L1058.63 1118.79ZM1080.28 1121.83C1072.33 1123.58 1065.14 1122.55 1058.63 1118.79L1057.63 1120.53C1064.6 1124.55 1072.32 1125.63 1080.71 1123.78L1080.28 1121.83ZM1098.98 1106.51C1094.12 1114.93 1087.87 1119.98 1080.26 1121.84L1080.73 1123.78C1088.98 1121.77 1095.64 1116.29 1100.71 1107.51L1098.98 1106.51ZM1166.81 842.197C1166.08 854.254 1166.75 865.27 1168.83 875.238L1170.79 874.83C1168.75 865.065 1168.09 854.23 1168.8 842.317L1166.81 842.197ZM1183.44 843.656C1177.46 842.084 1172.25 841.277 1167.81 841.257L1167.8 843.257C1172.02 843.275 1177.06 844.045 1182.93 845.59L1183.44 843.656ZM1200.58 850.726C1195.39 847.726 1189.67 845.372 1183.45 843.659L1182.92 845.587C1188.99 847.259 1194.55 849.55 1199.58 852.458L1200.58 850.726ZM1217.45 868.58C1214.05 861.195 1208.41 855.246 1200.58 850.726L1199.58 852.458C1207.1 856.797 1212.43 862.452 1215.63 869.416L1217.45 868.58ZM1215.51 892.118C1220.2 883.982 1220.9 876.099 1217.45 868.58L1215.63 869.416C1218.77 876.246 1218.21 883.443 1213.77 891.118L1215.51 892.118ZM1203.56 901.814C1208.71 900.226 1212.7 896.975 1215.51 892.118L1213.77 891.118C1211.21 895.561 1207.62 898.47 1202.97 899.902L1203.56 901.814ZM1185.79 898.901C1192.44 902.74 1198.43 903.82 1203.62 901.789L1202.9 899.927C1198.49 901.649 1193.16 900.848 1186.79 897.169L1185.79 898.901ZM1168.83 875.24C1171.04 885.743 1176.7 893.654 1185.79 898.901L1186.79 897.169C1178.21 892.214 1172.88 884.791 1170.79 874.828L1168.83 875.24ZM1061.93 754.623C1057.59 762.136 1054.52 769.621 1052.73 777.078L1054.68 777.544C1056.42 770.298 1059.41 762.991 1063.66 755.623L1061.93 754.623ZM1081.91 738.353C1073.66 740.361 1067 745.839 1061.93 754.623L1063.66 755.623C1068.52 747.202 1074.77 742.148 1082.38 740.296L1081.91 738.353ZM1105.01 741.605C1098.04 737.578 1090.32 736.503 1081.93 738.348L1082.36 740.301C1090.31 738.555 1097.5 739.579 1104.01 743.337L1105.01 741.605ZM1125.29 763.348C1122.19 754.821 1115.38 747.588 1105.01 741.605L1104.01 743.337C1114.11 749.167 1120.52 756.08 1123.41 764.031L1125.29 763.348ZM1130.12 792.487C1130.16 781.565 1128.56 771.84 1125.28 763.33L1123.42 764.049C1126.59 772.284 1128.16 781.755 1128.12 792.478L1130.12 792.487ZM1051.24 799.626L1129.19 793.479L1129.04 791.486L1051.09 797.632L1051.24 799.626ZM1052.73 777.111C1051.18 784.647 1050.33 791.812 1050.16 798.605L1052.16 798.653C1052.32 791.994 1053.16 784.947 1054.69 777.512L1052.73 777.111Z" fill="#C8E2F0"/>
</svg>
