<svg width="343" height="387" viewBox="0 0 343 387" fill="none" xmlns="http://www.w3.org/2000/svg">
<path fill-rule="evenodd" clip-rule="evenodd" d="M343 0.000244141H0.0351562V386.466H343V0.000244141ZM317.736 10.1399C309.609 10.1399 303 16.7282 303 24.8552C303 32.9823 309.609 39.5706 317.736 39.5706C325.863 39.5706 332.471 32.9823 332.471 24.8552C332.471 16.7282 325.863 10.1399 317.736 10.1399Z" fill="white"/>
<path d="M332.161 25.6723C332.161 33.2915 325.861 39.5001 318.05 39.5001C310.239 39.5001 303.939 33.2915 303.939 25.6723C303.939 18.0532 310.239 11.8445 318.05 11.8445C325.861 11.8445 332.161 18.0532 332.161 25.6723Z" stroke="#2D2D2D" stroke-width="2"/>
</svg>
