<svg width="344" height="454" viewBox="0 0 344 454" fill="none" xmlns="http://www.w3.org/2000/svg">
<path fill-rule="evenodd" clip-rule="evenodd" d="M20.1055 0.000244141C9.05977 0.000244141 0.105469 8.95454 0.105469 20.0002V434C0.105469 445.046 9.05978 454 20.1055 454H323.07C334.116 454 343.07 445.046 343.07 434V20.0002C343.07 8.95455 334.116 0.000244141 323.07 0.000244141H20.1055ZM307.463 12.5372C300.283 12.5372 294.463 18.3575 294.463 25.5372V36.1732C294.463 43.3529 300.283 49.1732 307.463 49.1732H318.149C325.329 49.1732 331.149 43.3529 331.149 36.1732V25.5372C331.149 18.3575 325.329 12.5372 318.149 12.5372H307.463Z" fill="white"/>
<rect x="294.674" y="14.3643" width="34.6868" height="34.636" rx="12" stroke="#2D2D2D" stroke-width="2"/>
</svg>
