<svg width="100" height="100" viewBox="0 0 100 100" fill="none" xmlns="http://www.w3.org/2000/svg">
<rect x="1" y="1" width="98" height="98" rx="49" fill="white" stroke="#2D2D2D" stroke-width="2"/>
<path d="M22.4922 37.592L23.5437 36.964L23.6022 28.128L22.4922 27.9528V27.646H25.939L29.2105 35.3429L32 27.646L35.5636 27.646V27.9528L34.5121 28.0696V37.5336L35.6951 37.592V37.8695H30.8316V37.592L32.0292 37.5336V28.9021L28.7431 37.9133L28.3488 37.9717C28.2904 37.9815 28.2125 37.9961 28.1151 38.0156C27.9885 38.035 27.9058 38.0545 27.8668 38.074L24.0111 29.2526L24.0403 36.9494L26.0266 37.592V37.8695H22.4922V37.592Z" fill="#2D2D2D"/>
<path d="M40.0468 32.9038V37.5044H42.9678C42.9678 37.3486 42.9726 37.2172 42.9824 37.1101C42.9824 36.8959 42.9872 36.7303 42.997 36.6135V36.1023V35.6788V35.1384C42.997 35.0897 42.9921 35.0215 42.9824 34.9339C42.9824 34.8366 42.9775 34.7684 42.9678 34.7294C42.9775 34.7294 42.9921 34.7294 43.0116 34.7294C43.031 34.7197 43.0554 34.7148 43.0846 34.7148C43.1138 34.7051 43.1381 34.7002 43.1576 34.7002C43.1868 34.6905 43.2355 34.6856 43.3037 34.6856C43.3718 34.6759 43.4205 34.671 43.4497 34.671C43.5958 34.671 43.7077 34.6662 43.7856 34.6564H44.1069C44.4282 34.6564 44.7057 34.6808 44.9394 34.7294C44.9394 34.8366 44.9443 34.9242 44.954 34.9923V35.3283V36.0001C44.9248 36.4674 44.9102 36.9348 44.9102 37.4022C44.9102 37.4606 44.9053 37.5531 44.8956 37.6796C44.8956 37.7965 44.8907 37.8793 44.881 37.9279C44.696 37.889 44.5013 37.8695 44.2968 37.8695H36.3663V37.592L37.5639 37.519V27.9966L36.3663 27.9235V27.646H44.0047C44.2092 27.646 44.4039 27.6266 44.5889 27.5876C44.5986 27.6655 44.6035 27.8116 44.6035 28.0258C44.6132 28.2302 44.6181 28.386 44.6181 28.4931C44.6278 28.756 44.6327 29.1309 44.6327 29.6177V30.1727C44.6327 30.3869 44.6278 30.533 44.6181 30.6109C44.3942 30.6595 44.1167 30.6839 43.7856 30.6839C43.6396 30.6839 43.5325 30.679 43.4643 30.6693C43.3085 30.6693 43.1966 30.6644 43.1284 30.6547C42.9921 30.6547 42.8947 30.6498 42.8363 30.6401C42.8168 30.6401 42.7925 30.6401 42.7633 30.6401C42.7341 30.6303 42.7097 30.6255 42.6903 30.6255C42.6708 30.6157 42.6562 30.6109 42.6464 30.6109C42.6659 30.4356 42.6805 30.236 42.6903 30.0121V29.2818V28.6392V28.2741C42.6805 28.2059 42.6757 28.1183 42.6757 28.0112H40.0468V32.4803H41.3466L42.1791 30.9614H42.4566V34.5104H42.1791L41.332 32.9038H40.0468Z" fill="#2D2D2D"/>
<path d="M46.5704 27.646H54.1942C54.3986 27.646 54.5934 27.6266 54.7784 27.5876C54.7881 27.6266 54.793 27.6996 54.793 27.8067C54.8027 27.9041 54.8076 27.9771 54.8076 28.0258C54.8076 28.2692 54.8124 28.4591 54.8222 28.5954V29.238V30.5086C54.8222 30.7423 54.8173 30.8981 54.8076 30.976C54.5349 31.0247 54.1893 31.049 53.7706 31.049C53.3617 31.049 53.0306 31.0247 52.7775 30.976C52.797 30.8299 52.8116 30.6255 52.8213 30.3626V29.5301V28.7414V28.3179C52.8116 28.2302 52.8067 28.128 52.8067 28.0112H51.4484V37.519L53.055 37.592V37.8695L47.3444 37.8695V37.592L48.9656 37.519V27.982H47.5635V28.2302V28.5954C47.5538 28.683 47.5489 28.8047 47.5489 28.9605V29.2672C47.5489 30.0267 47.5684 30.5962 47.6073 30.976C47.3347 31.0247 47.0037 31.049 46.6142 31.049C46.1858 31.049 45.8401 31.0247 45.5772 30.976C45.5675 30.8981 45.5626 30.7423 45.5626 30.5086V29.238C45.5626 28.9459 45.5675 28.7317 45.5772 28.5954C45.5772 28.3325 45.5821 28.1426 45.5919 28.0258C45.5919 27.8116 45.5967 27.6655 45.6065 27.5876C45.6746 27.5974 45.8158 27.612 46.03 27.6314C46.1663 27.6412 46.3464 27.646 46.5704 27.646Z" fill="#2D2D2D"/>
<path d="M60.8702 27.5C62.467 27.5 63.7474 27.943 64.7113 28.8291C65.685 29.7151 66.1718 30.9322 66.1718 32.4803C66.1718 34.1939 65.7045 35.5473 64.7697 36.5405C63.8448 37.5239 62.5498 38.0156 60.8848 38.0156C59.1712 38.0156 57.8373 37.5823 56.8831 36.7157C55.9289 35.8394 55.4518 34.5737 55.4518 32.9184C55.4518 31.3022 55.9581 29.9974 56.9707 29.0043C57.9833 28.0014 59.2831 27.5 60.8702 27.5ZM60.9286 37.6358C61.3278 37.6358 61.6784 37.5628 61.9802 37.4168C62.2918 37.261 62.5401 37.037 62.725 36.7449C62.91 36.4528 63.061 36.1559 63.1778 35.854C63.3044 35.5522 63.392 35.1871 63.4407 34.7587C63.4894 34.3302 63.5186 33.97 63.5283 33.6779C63.5478 33.3761 63.5575 33.0304 63.5575 32.6409C63.5575 32.1833 63.5429 31.7841 63.5137 31.4433C63.4942 31.0928 63.4407 30.6741 63.3531 30.1873C63.2654 29.6907 63.1096 29.2672 62.8857 28.9167C62.6715 28.5662 62.394 28.3081 62.0532 28.1426C61.693 27.9771 61.284 27.8943 60.8264 27.8943C60.0183 27.8943 59.4195 28.0988 59.03 28.5077C58.6405 28.9167 58.3728 29.5301 58.2267 30.348C58.1099 30.9808 58.0515 31.7744 58.0515 32.7286C58.0515 33.0596 58.0563 33.3663 58.0661 33.6487C58.0855 33.9213 58.1148 34.2329 58.1537 34.5834C58.2024 34.9339 58.2657 35.2455 58.3436 35.5181C58.4312 35.781 58.5432 36.0536 58.6795 36.336C58.8255 36.6086 58.9959 36.8374 59.1907 37.0224C59.3951 37.2074 59.6434 37.3583 59.9355 37.4752C60.2276 37.5823 60.5587 37.6358 60.9286 37.6358Z" fill="#2D2D2D"/>
<path d="M75.0666 37.8695H68.1438C68.1341 37.9766 68.1292 38.1519 68.1292 38.3953C68.1195 38.5121 68.1146 38.6874 68.1146 38.9211C68.1146 39.3982 68.1292 39.8899 68.1584 40.3962C67.9248 40.4449 67.5791 40.4692 67.1215 40.4692C66.771 40.4692 66.4691 40.4449 66.216 40.3962C66.2062 40.2306 66.1916 40.0116 66.1722 39.7389C66.1624 39.4955 66.1478 39.1937 66.1283 38.8334C66.1186 38.7069 66.1137 38.5511 66.1137 38.3661C66.104 38.2785 66.0991 38.1616 66.0991 38.0156C66.0894 37.9474 66.0845 37.85 66.0845 37.7235V37.446C66.1624 37.4654 66.3426 37.4849 66.6249 37.5044H66.9754C67.2481 37.4752 67.4525 37.3924 67.5888 37.2561C67.7349 37.1101 67.8615 36.8959 67.9686 36.6135C68.0562 36.3993 68.139 36.0634 68.2169 35.6057C68.5576 33.6779 68.8741 31.1415 69.1662 27.9966L67.9394 27.9235V27.646H76.8484V27.9235L75.6654 27.9966V37.5044H76.5417C76.7559 37.5044 76.9555 37.4849 77.1405 37.446V37.6943C77.1307 37.7527 77.1259 37.8452 77.1259 37.9717C77.1161 38.0399 77.1113 38.1519 77.1113 38.3077C77.1015 38.3563 77.0918 38.4294 77.0821 38.5267C77.0821 38.6338 77.0821 38.7117 77.0821 38.7604C77.0723 38.9844 77.0577 39.3008 77.0382 39.7097C77.0188 40.0116 77.0042 40.2404 76.9944 40.3962C76.7413 40.4449 76.4394 40.4692 76.0889 40.4692C75.6216 40.4692 75.2759 40.4449 75.052 40.3962C75.0812 39.958 75.0958 39.3008 75.0958 38.4245C75.086 38.3563 75.0812 38.259 75.0812 38.1324C75.0812 38.0156 75.0763 37.9279 75.0666 37.8695ZM68.9179 34.3497C68.9082 34.4374 68.8838 34.5883 68.8449 34.8025C68.8157 35.0167 68.7913 35.1822 68.7718 35.299C68.5966 36.4966 68.3532 37.2172 68.0416 37.4606H73.1825V28.055H69.6481C69.395 30.8591 69.1516 32.9574 68.9179 34.3497Z" fill="#2D2D2D"/>
<path d="M23.5433 45.2093L22.3457 45.1363V44.8588H27.2092V45.1363L26.0262 45.2093V49.5908H27.5743C27.8858 49.4058 28.1439 49.0991 28.3483 48.6707C28.4262 48.476 28.5041 48.2228 28.582 47.9113C28.6112 47.7847 28.6794 47.439 28.7865 46.8743C28.8449 46.5043 28.9033 46.2025 28.9617 45.9688C29.0396 45.4917 29.2636 45.1509 29.6336 44.9464C29.9062 44.8199 30.32 44.7566 30.875 44.7566C30.9237 44.7566 30.9918 44.7615 31.0795 44.7712C31.1671 44.7712 31.2304 44.7761 31.2693 44.7858L31.6637 44.8296C31.7805 45.0049 31.8389 45.4089 31.8389 46.0418C31.8389 46.3729 31.8146 46.5871 31.7659 46.6844C31.7269 46.6747 31.6734 46.6698 31.6052 46.6698C31.5371 46.6601 31.4835 46.6552 31.4446 46.6552C30.9091 46.6552 30.5099 46.6698 30.247 46.699C29.877 46.738 29.5995 46.8159 29.4145 46.9327C29.2295 47.0496 29.1078 47.2686 29.0494 47.5899C28.8352 48.6707 28.4993 49.3474 28.0416 49.62L28.0562 49.6931C28.3873 49.7223 28.6648 49.7904 28.8887 49.8975C29.1224 49.9949 29.322 50.1409 29.4875 50.3357C29.653 50.5304 29.7845 50.7203 29.8819 50.9053C29.9792 51.0903 30.0912 51.3483 30.2178 51.6793L30.7143 53.023C30.8312 53.3638 30.948 53.6607 31.0649 53.9139C31.2693 54.391 31.4689 54.6685 31.6637 54.7464C31.7708 54.8048 31.8827 54.834 31.9996 54.834C32.1067 54.834 32.1748 54.8291 32.204 54.8194L32.2917 55.0677C32.2138 55.0969 32.0969 55.131 31.9412 55.1699C31.4543 55.2283 31.0941 55.2575 30.8604 55.2575C30.3736 55.2575 29.9549 55.1845 29.6044 55.0385C29.2636 54.8924 28.9812 54.6685 28.7573 54.3666C28.5333 54.0551 28.3581 53.7484 28.2315 53.4465C28.1147 53.135 27.9881 52.7406 27.8518 52.2635C27.696 51.7767 27.584 51.4213 27.5159 51.1974C27.4866 51.0805 27.4282 50.8809 27.3406 50.5986C27.2627 50.3162 27.1994 50.0971 27.1507 49.9413C27.0826 49.9511 26.9852 49.9559 26.8586 49.9559H26.0262V54.7318L27.2092 54.8048V55.0823H22.3457V54.8048L23.5433 54.7318V45.2093Z" fill="#2D2D2D"/>
<path d="M37.6074 44.7128C39.2042 44.7128 40.4846 45.1558 41.4485 46.0418C42.4222 46.9279 42.909 48.1449 42.909 49.6931C42.909 51.4067 42.4417 52.7601 41.5069 53.7532C40.582 54.7366 39.287 55.2283 37.622 55.2283C35.9084 55.2283 34.5745 54.7951 33.6203 53.9285C32.6661 53.0522 32.189 51.7864 32.189 50.1312C32.189 48.5149 32.6953 47.2102 33.7079 46.2171C34.7205 45.2142 36.0203 44.7128 37.6074 44.7128ZM37.6658 54.8486C38.065 54.8486 38.4156 54.7756 38.7174 54.6295C39.029 54.4737 39.2773 54.2498 39.4622 53.9577C39.6472 53.6656 39.7982 53.3686 39.915 53.0668C40.0416 52.765 40.1292 52.3998 40.1779 51.9714C40.2266 51.543 40.2558 51.1828 40.2655 50.8907C40.285 50.5888 40.2947 50.2432 40.2947 49.8537C40.2947 49.3961 40.2801 48.9969 40.2509 48.6561C40.2314 48.3056 40.1779 47.8869 40.0903 47.4001C40.0026 46.9035 39.8468 46.48 39.6229 46.1294C39.4087 45.7789 39.1312 45.5209 38.7904 45.3554C38.4302 45.1899 38.0212 45.1071 37.5636 45.1071C36.7555 45.1071 36.1567 45.3116 35.7672 45.7205C35.3777 46.1294 35.11 46.7429 34.9639 47.5607C34.8471 48.1936 34.7887 48.9872 34.7887 49.9413C34.7887 50.2724 34.7935 50.5791 34.8033 50.8615C34.8227 51.1341 34.852 51.4457 34.8909 51.7962C34.9396 52.1467 35.0029 52.4583 35.0808 52.7309C35.1684 52.9938 35.2804 53.2664 35.4167 53.5488C35.5627 53.8214 35.7331 54.0502 35.9279 54.2352C36.1323 54.4202 36.3806 54.5711 36.6727 54.6879C36.9648 54.7951 37.2958 54.8486 37.6658 54.8486Z" fill="#2D2D2D"/>
<path d="M48.3607 45.1363L47.1777 45.2093V49.5908L51.3693 49.5908V45.2093L50.1717 45.1363V44.8588H55.0351V45.1363L53.8521 45.2093V54.7318L55.0351 54.8048V55.0823H50.1717V54.8048L51.3693 54.7318V50.029L47.1777 50.029V54.7318L48.3607 54.8048V55.0823H43.4972V54.8048L44.6948 54.7318V45.2093L43.4972 45.1363V44.8588L48.3607 44.8588V45.1363Z" fill="#2D2D2D"/>
<path d="M64.4975 55.0823H57.5748C57.565 55.1894 57.5602 55.3646 57.5602 55.6081C57.5504 55.7249 57.5456 55.9002 57.5456 56.1338C57.5456 56.6109 57.5602 57.1026 57.5894 57.6089C57.3557 57.6576 57.0101 57.682 56.5524 57.682C56.2019 57.682 55.9001 57.6576 55.6469 57.6089C55.6372 57.4434 55.6226 57.2243 55.6031 56.9517C55.5934 56.7083 55.5788 56.4065 55.5593 56.0462C55.5496 55.9196 55.5447 55.7638 55.5447 55.5789C55.535 55.4912 55.5301 55.3744 55.5301 55.2283C55.5203 55.1602 55.5155 55.0628 55.5155 54.9362V54.6587C55.5934 54.6782 55.7735 54.6977 56.0559 54.7172H56.4064C56.679 54.6879 56.8835 54.6052 57.0198 54.4689C57.1658 54.3228 57.2924 54.1086 57.3995 53.8263C57.4872 53.6121 57.5699 53.2761 57.6478 52.8185C57.9886 50.8907 58.305 48.3543 58.5971 45.2093L57.3703 45.1363V44.8588H66.2793V45.1363L65.0963 45.2093V54.7172H65.9726C66.1868 54.7172 66.3864 54.6977 66.5714 54.6587V54.907C66.5617 54.9654 66.5568 55.0579 66.5568 55.1845C66.5471 55.2527 66.5422 55.3646 66.5422 55.5204C66.5325 55.5691 66.5227 55.6421 66.513 55.7395C66.513 55.8466 66.513 55.9245 66.513 55.9732C66.5033 56.1971 66.4887 56.5136 66.4692 56.9225C66.4497 57.2243 66.4351 57.4532 66.4254 57.6089C66.1722 57.6576 65.8704 57.682 65.5199 57.682C65.0525 57.682 64.7069 57.6576 64.4829 57.6089C64.5121 57.1708 64.5267 56.5136 64.5267 55.6373C64.517 55.5691 64.5121 55.4717 64.5121 55.3452C64.5121 55.2283 64.5073 55.1407 64.4975 55.0823ZM58.3488 51.5625C58.3391 51.6501 58.3148 51.801 58.2758 52.0152C58.2466 52.2294 58.2223 52.395 58.2028 52.5118C58.0275 53.7094 57.7841 54.4299 57.4725 54.6733H62.6135V45.2678H59.0791C58.8259 48.0719 58.5825 50.1702 58.3488 51.5625Z" fill="#2D2D2D"/>
<path d="M72.3512 44.7128C73.948 44.7128 75.2284 45.1558 76.1923 46.0418C77.166 46.9279 77.6528 48.1449 77.6528 49.6931C77.6528 51.4067 77.1855 52.7601 76.2507 53.7532C75.3258 54.7366 74.0308 55.2283 72.3658 55.2283C70.6522 55.2283 69.3183 54.7951 68.3641 53.9285C67.4099 53.0522 66.9328 51.7864 66.9328 50.1312C66.9328 48.5149 67.4391 47.2102 68.4517 46.2171C69.4643 45.2142 70.7642 44.7128 72.3512 44.7128ZM72.4096 54.8486C72.8088 54.8486 73.1594 54.7756 73.4612 54.6295C73.7728 54.4737 74.0211 54.2498 74.2061 53.9577C74.391 53.6656 74.542 53.3686 74.6588 53.0668C74.7854 52.765 74.873 52.3998 74.9217 51.9714C74.9704 51.543 74.9996 51.1828 75.0093 50.8907C75.0288 50.5888 75.0385 50.2432 75.0385 49.8537C75.0385 49.3961 75.0239 48.9969 74.9947 48.6561C74.9752 48.3056 74.9217 47.8869 74.8341 47.4001C74.7464 46.9035 74.5907 46.48 74.3667 46.1294C74.1525 45.7789 73.875 45.5209 73.5342 45.3554C73.174 45.1899 72.765 45.1071 72.3074 45.1071C71.4993 45.1071 70.9005 45.3116 70.511 45.7205C70.1215 46.1294 69.8538 46.7429 69.7077 47.5607C69.5909 48.1936 69.5325 48.9872 69.5325 49.9413C69.5325 50.2724 69.5373 50.5791 69.5471 50.8615C69.5665 51.1341 69.5958 51.4457 69.6347 51.7962C69.6834 52.1467 69.7467 52.4583 69.8246 52.7309C69.9122 52.9938 70.0242 53.2664 70.1605 53.5488C70.3065 53.8214 70.4769 54.0502 70.6717 54.2352C70.8761 54.4202 71.1244 54.5711 71.4165 54.6879C71.7086 54.7951 72.0397 54.8486 72.4096 54.8486Z" fill="#2D2D2D"/>
<path d="M22.4922 72.018L23.5437 71.39L23.6022 62.554L22.4922 62.3787V62.072H25.939L29.2105 69.7688L32 62.072H35.5636V62.3787L34.5121 62.4955V71.9595L35.6951 72.018V72.2955H30.8316V72.018L32.0292 71.9595V63.328L28.7431 72.3393L28.3488 72.3977C28.2904 72.4074 28.2125 72.422 28.1151 72.4415C27.9885 72.461 27.9058 72.4805 27.8668 72.4999L24.0111 63.6785L24.0403 71.3753L26.0266 72.018V72.2955H22.4922V72.018Z" fill="#2D2D2D"/>
<path d="M42.6757 71.9449L41.6533 68.8779H38.0751L37.2134 71.3753L39.0244 72.018V72.2955H35.6215V72.018L36.7607 71.3753L40.0614 62.0428H40.6602C41.1957 62.0428 41.5705 62.0087 41.7848 61.9406L45.2461 71.9742L46.137 72.018V72.2955H41.2736V72.018L42.6757 71.9449ZM39.9153 63.5909L38.2211 68.469H41.5219L39.9153 63.5909Z" fill="#2D2D2D"/>
<path d="M50.5622 68.3375H49.7882V71.9449L51.5554 72.018V72.2955H46.1077V72.018L47.3053 71.9449V62.4225L46.1077 62.3495V62.072H50.8689C53.6633 62.072 55.0605 63.0749 55.0605 65.0806C55.0605 65.7038 54.9291 66.2393 54.6662 66.6872C54.4033 67.135 54.0431 67.4758 53.5854 67.7095C53.1376 67.9335 52.6653 68.0941 52.1688 68.1915C51.6819 68.2888 51.1464 68.3375 50.5622 68.3375ZM50.5184 62.4371H49.7882V67.9578H50.6352C51.0344 67.9578 51.3606 67.8896 51.6138 67.7533C51.8767 67.6073 52.0617 67.3979 52.1688 67.1253C52.2856 66.8429 52.3635 66.5655 52.4024 66.2928C52.4414 66.0202 52.4609 65.6843 52.4609 65.2851C52.4609 64.8761 52.4365 64.5256 52.3878 64.2335C52.3489 63.9317 52.2661 63.6347 52.1395 63.3426C52.013 63.0505 51.8134 62.8266 51.5407 62.6708C51.2681 62.515 50.9273 62.4371 50.5184 62.4371Z" fill="#2D2D2D"/>
<path d="M60.3274 62.3495L59.1444 62.4225V71.0979H59.1883L63.4821 62.072H67.148V62.3495L65.965 62.4225V71.9449L67.148 72.018V72.2955H62.2845V72.018L63.4821 71.9449V63.2696H63.4383L59.1444 72.2955H55.464V72.018L56.6616 71.9449V62.4225L55.464 62.3495V62.072H60.3274V62.3495Z" fill="#2D2D2D"/>
</svg>
