<svg width="478" height="157" viewBox="0 0 478 157" fill="none" xmlns="http://www.w3.org/2000/svg">
<path fill-rule="evenodd" clip-rule="evenodd" d="M28.3366 0C30.8567 0 32.7598 2.26505 32.7598 4.78516V105.619C32.7598 122.069 46.095 135.404 62.5449 135.404C78.9948 135.404 92.3301 122.069 92.3301 105.619V4.78516C92.3301 2.26505 94.2332 0 96.7533 0H457.965C469.011 0 477.965 8.95431 477.965 20V136.322C477.965 147.368 469.011 156.322 457.965 156.322H20.9648C9.91914 156.322 0.964844 147.368 0.964844 136.322V14.7979C0.964844 6.62521 7.59008 0 15.7627 0H28.3366Z" fill="white"/>
<path d="M64.3985 77.9462H61.122L48.8782 3.10405L54.2241 0H71.9861L77.1596 2.93161L64.3985 77.9462ZM47.3262 106.4C47.3262 102.031 48.8782 98.4674 51.9822 95.7083C54.9713 92.7192 58.7077 91.2246 63.1913 91.2246C67.675 91.2246 71.4113 92.6617 74.4004 95.5358C77.3895 98.295 78.884 101.916 78.884 106.4C78.884 111.229 77.447 115.195 74.5728 118.299C71.8137 121.288 68.0199 122.782 63.1913 122.782C58.2478 122.782 54.339 121.288 51.4649 118.299C48.7058 115.31 47.3262 111.344 47.3262 106.4Z" fill="#2D2D2D"/>
</svg>
